<svg width="52" height="26" viewBox="0 0 52 26" fill="none" xmlns="http://www.w3.org/2000/svg">
<path d="M32.0664 16.1738V18.6875H21.4316V16.1738H32.0664ZM20.7109 7.77148V6.3125C20.7109 5.10547 20.957 4.03906 21.4492 3.11328C21.9531 2.17578 22.6562 1.44336 23.5586 0.916016C24.4609 0.388672 25.5273 0.125 26.7578 0.125C28.0117 0.125 29.084 0.388672 29.9746 0.916016C30.877 1.44336 31.5742 2.17578 32.0664 3.11328C32.5586 4.03906 32.8047 5.10547 32.8047 6.3125V7.77148C32.8047 8.97852 32.5586 10.0449 32.0664 10.9707C31.5859 11.8965 30.8945 12.623 29.9922 13.1504C29.1016 13.6777 28.0352 13.9414 26.793 13.9414C25.5508 13.9414 24.4727 13.6777 23.5586 13.1504C22.6562 12.623 21.9531 11.8965 21.4492 10.9707C20.957 10.0449 20.7109 8.97852 20.7109 7.77148ZM23.6641 6.3125V7.77148C23.6641 8.48633 23.7754 9.11914 23.998 9.66992C24.2207 10.2207 24.5664 10.6543 25.0352 10.9707C25.5039 11.2871 26.0898 11.4453 26.793 11.4453C27.4844 11.4453 28.0586 11.2871 28.5156 10.9707C28.9727 10.6543 29.3125 10.2207 29.5352 9.66992C29.7578 9.11914 29.8691 8.48633 29.8691 7.77148V6.3125C29.8691 5.60938 29.752 4.98242 29.5176 4.43164C29.2949 3.88086 28.9551 3.44727 28.498 3.13086C28.041 2.80273 27.4609 2.63867 26.7578 2.63867C26.0664 2.63867 25.4863 2.80273 25.0176 3.13086C24.5605 3.44727 24.2207 3.88086 23.998 4.43164C23.7754 4.98242 23.6641 5.60938 23.6641 6.3125ZM18.25 0.40625V26H13.5918L4.78516 7.66602V26H0.53125V0.40625H5.18945L14.0137 18.7754V0.40625H18.25ZM51.8383 0.318359V26H47.602V5.3457L41.3266 7.47266V3.97461L51.3285 0.318359H51.8383Z" fill="#EDF2F5"/>
</svg>
