<svg width="57" height="27" viewBox="0 0 57 27" fill="none" xmlns="http://www.w3.org/2000/svg">
<path d="M32.0664 16.1738V18.6875H21.4316V16.1738H32.0664ZM20.7109 7.77148V6.3125C20.7109 5.10547 20.957 4.03906 21.4492 3.11328C21.9531 2.17578 22.6562 1.44336 23.5586 0.916016C24.4609 0.388672 25.5273 0.125 26.7578 0.125C28.0117 0.125 29.084 0.388672 29.9746 0.916016C30.877 1.44336 31.5742 2.17578 32.0664 3.11328C32.5586 4.03906 32.8047 5.10547 32.8047 6.3125V7.77148C32.8047 8.97852 32.5586 10.0449 32.0664 10.9707C31.5859 11.8965 30.8945 12.623 29.9922 13.1504C29.1016 13.6777 28.0352 13.9414 26.793 13.9414C25.5508 13.9414 24.4727 13.6777 23.5586 13.1504C22.6562 12.623 21.9531 11.8965 21.4492 10.9707C20.957 10.0449 20.7109 8.97852 20.7109 7.77148ZM23.6641 6.3125V7.77148C23.6641 8.48633 23.7754 9.11914 23.998 9.66992C24.2207 10.2207 24.5664 10.6543 25.0352 10.9707C25.5039 11.2871 26.0898 11.4453 26.793 11.4453C27.4844 11.4453 28.0586 11.2871 28.5156 10.9707C28.9727 10.6543 29.3125 10.2207 29.5352 9.66992C29.7578 9.11914 29.8691 8.48633 29.8691 7.77148V6.3125C29.8691 5.60938 29.752 4.98242 29.5176 4.43164C29.2949 3.88086 28.9551 3.44727 28.498 3.13086C28.041 2.80273 27.4609 2.63867 26.7578 2.63867C26.0664 2.63867 25.4863 2.80273 25.0176 3.13086C24.5605 3.44727 24.2207 3.88086 23.998 4.43164C23.7754 4.98242 23.6641 5.60938 23.6641 6.3125ZM18.25 0.40625V26H13.5918L4.78516 7.66602V26H0.53125V0.40625H5.18945L14.0137 18.7754V0.40625H18.25ZM45.2465 11.2871H47.7777C48.7621 11.2871 49.5766 11.1172 50.2211 10.7773C50.8773 10.4375 51.3637 9.96875 51.6801 9.37109C51.9965 8.77344 52.1547 8.08789 52.1547 7.31445C52.1547 6.50586 52.0082 5.81445 51.7152 5.24023C51.434 4.6543 51.0004 4.20312 50.4145 3.88672C49.8402 3.57031 49.1078 3.41211 48.2172 3.41211C47.4672 3.41211 46.7875 3.56445 46.1781 3.86914C45.5805 4.16211 45.1059 4.58398 44.7543 5.13477C44.4027 5.67383 44.227 6.31836 44.227 7.06836H39.973C39.973 5.70898 40.3305 4.50195 41.0453 3.44727C41.7602 2.39258 42.7328 1.56641 43.9633 0.96875C45.2055 0.359375 46.6 0.0546875 48.1469 0.0546875C49.7992 0.0546875 51.2406 0.330078 52.4711 0.880859C53.7133 1.41992 54.6801 2.22852 55.3715 3.30664C56.0629 4.38477 56.4086 5.7207 56.4086 7.31445C56.4086 8.04102 56.2387 8.7793 55.8988 9.5293C55.559 10.2793 55.0551 10.9648 54.3871 11.5859C53.7191 12.1953 52.8871 12.6934 51.891 13.0801C50.8949 13.4551 49.7406 13.6426 48.4281 13.6426H45.2465V11.2871ZM45.2465 14.5918V12.2715H48.4281C49.9281 12.2715 51.2055 12.4473 52.2602 12.7988C53.3266 13.1504 54.1937 13.6367 54.8617 14.2578C55.5297 14.8672 56.016 15.5645 56.3207 16.3496C56.6371 17.1348 56.7953 17.9668 56.7953 18.8457C56.7953 20.041 56.5785 21.1074 56.1449 22.0449C55.723 22.9707 55.1195 23.7559 54.3344 24.4004C53.5492 25.0449 52.6293 25.5312 51.5746 25.8594C50.5316 26.1875 49.3949 26.3516 48.1645 26.3516C47.0629 26.3516 46.0082 26.1992 45.0004 25.8945C43.9926 25.5898 43.0902 25.1387 42.2934 24.541C41.4965 23.9316 40.8637 23.1758 40.3949 22.2734C39.9379 21.3594 39.7094 20.3047 39.7094 19.1094H43.9457C43.9457 19.8711 44.1215 20.5449 44.473 21.1309C44.8363 21.7051 45.3402 22.1562 45.9848 22.4844C46.641 22.8125 47.391 22.9766 48.2348 22.9766C49.1254 22.9766 49.893 22.8184 50.5375 22.502C51.182 22.1855 51.6742 21.7168 52.0141 21.0957C52.3656 20.4746 52.5414 19.7246 52.5414 18.8457C52.5414 17.8496 52.348 17.041 51.9613 16.4199C51.5746 15.7988 51.0238 15.3418 50.309 15.0488C49.5941 14.7441 48.7504 14.5918 47.7777 14.5918H45.2465Z" fill="#8D99B1"/>
</svg>
