<svg width="58" height="26" viewBox="0 0 58 26" fill="none" xmlns="http://www.w3.org/2000/svg">
<path d="M32.0664 16.1738V18.6875H21.4316V16.1738H32.0664ZM20.7109 7.77148V6.3125C20.7109 5.10547 20.957 4.03906 21.4492 3.11328C21.9531 2.17578 22.6562 1.44336 23.5586 0.916016C24.4609 0.388672 25.5273 0.125 26.7578 0.125C28.0117 0.125 29.084 0.388672 29.9746 0.916016C30.877 1.44336 31.5742 2.17578 32.0664 3.11328C32.5586 4.03906 32.8047 5.10547 32.8047 6.3125V7.77148C32.8047 8.97852 32.5586 10.0449 32.0664 10.9707C31.5859 11.8965 30.8945 12.623 29.9922 13.1504C29.1016 13.6777 28.0352 13.9414 26.793 13.9414C25.5508 13.9414 24.4727 13.6777 23.5586 13.1504C22.6562 12.623 21.9531 11.8965 21.4492 10.9707C20.957 10.0449 20.7109 8.97852 20.7109 7.77148ZM23.6641 6.3125V7.77148C23.6641 8.48633 23.7754 9.11914 23.998 9.66992C24.2207 10.2207 24.5664 10.6543 25.0352 10.9707C25.5039 11.2871 26.0898 11.4453 26.793 11.4453C27.4844 11.4453 28.0586 11.2871 28.5156 10.9707C28.9727 10.6543 29.3125 10.2207 29.5352 9.66992C29.7578 9.11914 29.8691 8.48633 29.8691 7.77148V6.3125C29.8691 5.60938 29.752 4.98242 29.5176 4.43164C29.2949 3.88086 28.9551 3.44727 28.498 3.13086C28.041 2.80273 27.4609 2.63867 26.7578 2.63867C26.0664 2.63867 25.4863 2.80273 25.0176 3.13086C24.5605 3.44727 24.2207 3.88086 23.998 4.43164C23.7754 4.98242 23.6641 5.60938 23.6641 6.3125ZM18.25 0.40625V26H13.5918L4.78516 7.66602V26H0.53125V0.40625H5.18945L14.0137 18.7754V0.40625H18.25ZM57.4281 22.625V26H40.2719V23.0996L48.6039 14.0117C49.518 12.9805 50.2387 12.0898 50.766 11.3398C51.2934 10.5898 51.6625 9.91602 51.8734 9.31836C52.0961 8.70898 52.2074 8.11719 52.2074 7.54297C52.2074 6.73438 52.0551 6.02539 51.7504 5.41602C51.4574 4.79492 51.0238 4.30859 50.4496 3.95703C49.8754 3.59375 49.1781 3.41211 48.3578 3.41211C47.4086 3.41211 46.6117 3.61719 45.9672 4.02734C45.3227 4.4375 44.8363 5.00586 44.5082 5.73242C44.1801 6.44727 44.016 7.26758 44.016 8.19336H39.7797C39.7797 6.70508 40.1195 5.3457 40.7992 4.11523C41.4789 2.87305 42.4633 1.88867 43.7523 1.16211C45.0414 0.423828 46.5941 0.0546875 48.4105 0.0546875C50.1215 0.0546875 51.5746 0.341797 52.7699 0.916016C53.9652 1.49023 54.8734 2.30469 55.4945 3.35938C56.1273 4.41406 56.4437 5.66211 56.4437 7.10352C56.4437 7.90039 56.3148 8.69141 56.057 9.47656C55.7992 10.2617 55.4301 11.0469 54.9496 11.832C54.4809 12.6055 53.9242 13.3848 53.2797 14.1699C52.6352 14.9434 51.9262 15.7285 51.1527 16.5254L45.6156 22.625H57.4281Z" fill="#8D99B1"/>
</svg>
