<svg width="28" height="28" viewBox="0 0 28 28" fill="none" xmlns="http://www.w3.org/2000/svg">
<path d="M20.4206 0H7.57933C3.40002 0 0 3.40001 0 7.57931V20.4208C0 24.5999 3.40002 27.9999 7.57933 27.9999H20.4208C24.5999 27.9999 27.9999 24.5999 27.9999 20.4208V7.57931C27.9999 3.40001 24.5999 0 20.4206 0ZM14 20.6956C9.8 20.6956 6.55302 17.1581 6.53333 13.5059C6.50709 8.6364 9.77839 6.08694 14 6.08694C18.2216 6.08694 21.4667 8.6364 21.4667 13.5059C21.4667 17.7275 18.2 20.6956 14 20.6956ZM21.8391 8.14946C20.5915 8.14946 19.5768 7.13476 19.5768 5.88721C19.5768 4.63966 20.5915 3.62474 21.8391 3.62474C23.0866 3.62474 24.1016 4.63966 24.1016 5.88721C24.1016 7.13476 23.0866 8.14946 21.8391 8.14946Z" fill="white"/>
<path d="M14.0001 8.52148C11.1931 8.52148 8.90918 10.7059 8.90918 13.391C8.90918 16.076 11.1931 18.2606 14.0001 18.2606C16.8073 18.2606 19.091 16.076 19.091 13.391C19.091 10.7059 16.8073 8.52148 14.0001 8.52148Z" fill="white"/>
<path d="M21.839 5.26562C21.4968 5.26562 21.2183 5.54419 21.2183 5.88641C21.2183 6.22863 21.4968 6.50719 21.839 6.50719C22.1815 6.50719 22.4601 6.22885 22.4601 5.88641C22.4601 5.54397 22.1815 5.26562 21.839 5.26562Z" fill="white"/>
</svg>
