<svg width="345" height="75" viewBox="0 0 345 75" fill="none" xmlns="http://www.w3.org/2000/svg">
<g clip-path="url(#clip0_28_570)">
<path fill-rule="evenodd" clip-rule="evenodd" d="M37.468 34.1803C37.468 34.3445 37.4218 34.4924 37.3316 34.6241C37.2402 34.7562 37.0741 34.8628 36.8341 34.9449C36.5938 35.0274 36.2745 35.0928 35.8777 35.1424C35.4804 35.192 34.9745 35.2166 34.3617 35.2166C33.7656 35.2166 33.2689 35.192 32.8712 35.1424C32.4735 35.0933 32.1581 35.0274 31.927 34.9449C31.695 34.8628 31.5293 34.7562 31.4299 34.6241C31.3309 34.4924 31.2809 34.3441 31.2809 34.1803V8.19268H31.231L21.9142 34.1553C21.8479 34.3695 21.7401 34.5462 21.5912 34.6862C21.4414 34.8266 21.2393 34.9374 20.9825 35.0191C20.7262 35.1016 20.3982 35.1549 20.0009 35.1799C19.6041 35.2045 19.1234 35.217 18.5596 35.217C17.9966 35.217 17.5159 35.1966 17.1182 35.1553C16.7214 35.1145 16.3933 35.0483 16.137 34.9578C15.8807 34.8674 15.6773 34.7566 15.5279 34.6245C15.3794 34.4928 15.28 34.3366 15.2301 34.1557L6.23628 8.1931H6.18636V34.1807C6.18636 34.3449 6.14064 34.4928 6.05003 34.6245C5.95858 34.7566 5.78868 34.8633 5.54035 34.9453C5.29201 35.0278 4.9732 35.0933 4.58434 35.1428C4.19463 35.1924 3.69376 35.217 3.08047 35.217C2.48438 35.217 1.98729 35.1924 1.58961 35.1428C1.19278 35.0937 0.873549 35.0278 0.633602 34.9453C0.393235 34.8633 0.227538 34.7566 0.136509 34.6245C0.0450605 34.4928 -0.000244141 34.3445 -0.000244141 34.1807V5.72513C-0.000244141 4.88636 0.223343 4.24468 0.670936 3.8005C1.11769 3.35674 1.7142 3.13465 2.45963 3.13465H6.73295C7.49474 3.13465 8.14872 3.1959 8.69573 3.31966C9.24233 3.44299 9.71425 3.64883 10.1115 3.93634C10.5088 4.22468 10.8406 4.60302 11.1057 5.07219C11.3704 5.54054 11.6024 6.12055 11.8008 6.8114L18.758 25.8389H18.857L26.0625 6.86098C26.2777 6.17014 26.5139 5.58596 26.7702 5.10844C27.0269 4.63177 27.3256 4.24468 27.6654 3.94842C28.0047 3.65258 28.4062 3.44257 28.8702 3.31924C29.3337 3.1959 29.8723 3.13424 30.4852 3.13424H34.8827C35.3298 3.13424 35.7153 3.19132 36.0388 3.30674C36.3614 3.42216 36.6265 3.5905 36.8333 3.81258C37.0401 4.0355 37.1974 4.30718 37.3052 4.6276C37.4126 4.94802 37.4671 5.31428 37.4671 5.72513V34.1807L37.468 34.1803ZM73.3941 18.7308C73.3941 21.3796 73.0628 23.7489 72.4008 25.8381C71.738 27.9281 70.7522 29.7002 69.4438 31.1565C68.1359 32.6128 66.5166 33.7232 64.587 34.4878C62.6574 35.2533 60.4248 35.6362 57.8907 35.6362C55.3902 35.6362 53.2076 35.3116 51.3442 34.6612C49.4804 34.0112 47.9279 33.0203 46.6858 31.6874C45.4437 30.3548 44.5112 28.6602 43.8903 26.6035C43.2691 24.5472 42.9582 22.1122 42.9582 19.2988C42.9582 16.7158 43.2896 14.3916 43.9524 12.3265C44.6152 10.2619 45.601 8.5056 46.909 7.05765C48.2173 5.61012 49.8366 4.49926 51.7662 3.72633C53.6958 2.9534 55.9359 2.56631 58.4868 2.56631C60.9219 2.56631 63.0706 2.88673 64.9343 3.52841C66.7977 4.17051 68.3544 5.1572 69.6053 6.49014C70.8562 7.82309 71.8005 9.50521 72.4381 11.5369C73.0753 13.5686 73.3941 15.9666 73.3941 18.7308ZM66.5372 19.0762C66.5372 17.3983 66.4046 15.872 66.1399 14.4986C65.8748 13.1249 65.4235 11.9482 64.7858 10.9694C64.1482 9.99105 63.2992 9.23395 62.2391 8.69936C61.1787 8.16434 59.8539 7.89684 58.2636 7.89684C56.6574 7.89684 55.3151 8.19685 54.2387 8.79769C53.1623 9.39812 52.2927 10.2002 51.6303 11.204C50.9675 12.2073 50.4998 13.3799 50.2267 14.7207C49.9532 16.062 49.8164 17.4808 49.8164 18.9779C49.8164 20.7217 49.949 22.2888 50.2141 23.6793C50.4788 25.0697 50.9264 26.2581 51.5552 27.2448C52.1848 28.2323 53.0293 28.9852 54.0897 29.5031C55.1502 30.0219 56.4833 30.2807 58.0896 30.2807C59.6962 30.2807 61.0381 29.9844 62.1145 29.3919C63.1909 28.7994 64.061 27.9935 64.7233 26.9731C65.3861 25.9531 65.8543 24.7643 66.1274 23.4072C66.4009 22.0505 66.5372 20.6063 66.5372 19.0758V19.0762ZM103.979 34.1803C103.979 34.3445 103.925 34.4924 103.818 34.6241C103.71 34.7562 103.532 34.8628 103.283 34.9449C103.035 35.0274 102.704 35.0928 102.29 35.1424C101.876 35.192 101.354 35.2166 100.724 35.2166C100.078 35.2166 99.5446 35.192 99.1222 35.1424C98.6997 35.0933 98.3679 35.0274 98.128 34.9449C97.8876 34.8628 97.7139 34.7562 97.6061 34.6241C97.4987 34.4924 97.4442 34.3441 97.4442 34.1803V21.2725H85.4192V34.1803C85.4192 34.3445 85.3693 34.4924 85.2703 34.6241C85.1713 34.7562 84.9967 34.8628 84.7484 34.9449C84.4997 35.0274 84.1687 35.0928 83.7542 35.1424C83.3402 35.192 82.8104 35.2166 82.1644 35.2166C81.5347 35.2166 81.0091 35.192 80.5867 35.1424C80.1643 35.0933 79.8287 35.0274 79.5807 34.9449C79.3324 34.8628 79.1537 34.7562 79.0463 34.6241C78.9385 34.4924 78.8844 34.3441 78.8844 34.1803V4.02259C78.8844 3.85758 78.9385 3.70966 79.0463 3.57799C79.1537 3.44674 79.3324 3.33966 79.5807 3.25715C79.8287 3.17549 80.1643 3.11007 80.5867 3.06007C81.0091 3.01048 81.5347 2.98632 82.1644 2.98632C82.8104 2.98632 83.3402 3.01048 83.7542 3.06007C84.1687 3.10965 84.4997 3.17549 84.7484 3.25715C84.9967 3.33966 85.1708 3.44674 85.2703 3.57799C85.3693 3.70966 85.4192 3.858 85.4192 4.02259V15.7449H97.4442V4.02259C97.4442 3.85758 97.4987 3.70966 97.6061 3.57799C97.7139 3.44674 97.8876 3.33966 98.128 3.25715C98.3679 3.17549 98.6997 3.11007 99.1222 3.06007C99.5446 3.01048 100.078 2.98632 100.724 2.98632C101.354 2.98632 101.876 3.01048 102.29 3.06007C102.704 3.10965 103.035 3.17549 103.283 3.25715C103.532 3.33966 103.71 3.44674 103.818 3.57799C103.925 3.70966 103.979 3.858 103.979 4.02259V34.1803ZM139.906 18.7308C139.906 21.3796 139.574 23.7489 138.912 25.8381C138.249 27.9281 137.264 29.7002 135.955 31.1565C134.647 32.6128 133.028 33.7232 131.098 34.4878C129.169 35.2533 126.936 35.6362 124.402 35.6362C121.901 35.6362 119.719 35.3116 117.856 34.6612C115.992 34.0112 114.439 33.0203 113.197 31.6874C111.955 30.3548 111.023 28.6602 110.402 26.6035C109.78 24.5472 109.47 22.1122 109.47 19.2988C109.47 16.7158 109.801 14.3916 110.464 12.3265C111.126 10.2619 112.112 8.5056 113.42 7.05765C114.729 5.61012 116.348 4.49926 118.278 3.72633C120.207 2.9534 122.447 2.56631 124.998 2.56631C127.433 2.56631 129.582 2.88673 131.446 3.52841C133.309 4.17051 134.866 5.1572 136.117 6.49014C137.368 7.82309 138.312 9.50521 138.949 11.5369C139.587 13.5686 139.906 15.9666 139.906 18.7308ZM133.048 19.0762C133.048 17.3983 132.916 15.872 132.651 14.4986C132.386 13.1249 131.935 11.9482 131.297 10.9694C130.66 9.99105 129.811 9.23395 128.75 8.69936C127.69 8.16434 126.365 7.89684 124.775 7.89684C123.169 7.89684 121.826 8.19685 120.75 8.79769C119.674 9.39812 118.804 10.2002 118.142 11.204C117.479 12.2073 117.011 13.3799 116.738 14.7207C116.465 16.062 116.328 17.4808 116.328 18.9779C116.328 20.7217 116.46 22.2888 116.726 23.6793C116.99 25.0697 117.438 26.2581 118.067 27.2448C118.696 28.2323 119.541 28.9852 120.601 29.5031C121.661 30.0219 122.995 30.2807 124.601 30.2807C126.207 30.2807 127.55 29.9844 128.626 29.3919C129.702 28.7994 130.572 27.9935 131.235 26.9731C131.898 25.9531 132.366 24.7643 132.639 23.4072C132.912 22.0505 133.048 20.6063 133.048 19.0758V19.0762ZM168.992 34.2291C168.992 34.3941 168.943 34.5378 168.844 34.6612C168.745 34.7845 168.57 34.8874 168.322 34.9691C168.073 35.0516 167.738 35.1137 167.316 35.1549C166.893 35.1962 166.367 35.2166 165.738 35.2166C165.092 35.2166 164.562 35.1962 164.148 35.1549C163.734 35.1141 163.402 35.0516 163.154 34.9691C162.906 34.8874 162.732 34.7845 162.632 34.6612C162.533 34.5378 162.483 34.3937 162.483 34.2291V8.46435H155.576C155.112 12.2319 154.64 15.5224 154.16 18.3358C153.679 21.1492 153.166 23.5597 152.619 25.5668C152.073 27.5744 151.473 29.2198 150.818 30.5027C150.163 31.7861 149.418 32.8024 148.581 33.5507C147.745 34.2999 146.801 34.8141 145.749 35.0941C144.697 35.3737 143.501 35.5129 142.159 35.5129C141.911 35.5129 141.696 35.4799 141.513 35.4145C141.331 35.3483 141.186 35.2249 141.078 35.0441C140.971 34.8633 140.892 34.6083 140.842 34.2795C140.792 33.9503 140.768 33.5307 140.768 33.0211C140.768 32.3136 140.784 31.7415 140.818 31.3057C140.851 30.8698 140.909 30.5327 140.992 30.294C141.074 30.0557 141.182 29.8948 141.315 29.8123C141.448 29.7306 141.605 29.6898 141.786 29.6898C142.3 29.6898 142.793 29.5869 143.265 29.3811C143.736 29.1752 144.192 28.7677 144.632 28.1589C145.071 27.5506 145.493 26.6952 145.899 25.5926C146.304 24.4901 146.702 23.0384 147.091 21.2367C147.48 19.435 147.87 17.2387 148.259 14.6474C148.648 12.0557 149.042 8.9752 149.439 5.40512C149.539 4.56635 149.738 3.978 150.036 3.6405C150.334 3.30299 150.773 3.13465 151.353 3.13465H167.129C167.726 3.13465 168.185 3.30257 168.508 3.6405C168.831 3.97759 168.992 4.49218 168.992 5.18303V34.2295V34.2291ZM202.186 34.2291C202.186 34.3941 202.132 34.5378 202.025 34.6612C201.917 34.7845 201.739 34.8874 201.491 34.9691C201.242 35.0516 200.907 35.1137 200.485 35.1549C200.062 35.1962 199.536 35.2166 198.906 35.2166C198.277 35.2166 197.751 35.1962 197.328 35.1549C196.906 35.1141 196.575 35.0516 196.335 34.9691C196.095 34.8874 195.925 34.7845 195.825 34.6612C195.726 34.5378 195.676 34.3937 195.676 34.2291V17.3983C195.676 16.7566 195.685 16.127 195.702 15.5103C195.718 14.8937 195.742 14.3461 195.775 13.8695H195.726C195.593 14.0995 195.436 14.3674 195.254 14.6707C195.072 14.9753 194.877 15.2962 194.67 15.6333C194.463 15.9703 194.243 16.3158 194.012 16.6699C193.78 17.0241 193.548 17.3654 193.316 17.6941L182.135 34.2537C182.002 34.4345 181.866 34.5903 181.726 34.7224C181.584 34.8541 181.402 34.957 181.179 35.0308C180.955 35.1049 180.681 35.1541 180.359 35.1787C180.036 35.2033 179.618 35.2158 179.104 35.2158C178.458 35.2158 177.936 35.1954 177.539 35.1541C177.141 35.1133 176.831 35.0508 176.607 34.9683C176.383 34.8866 176.23 34.7799 176.148 34.6478C176.065 34.5162 176.023 34.3603 176.023 34.1795V3.97217C176.023 3.808 176.078 3.66425 176.185 3.54049C176.293 3.41716 176.475 3.31466 176.732 3.23215C176.989 3.14965 177.324 3.0884 177.738 3.04673C178.152 3.0059 178.674 2.98548 179.303 2.98548C179.949 2.98548 180.479 3.0059 180.894 3.04673C181.308 3.08798 181.639 3.14965 181.887 3.23215C182.136 3.31466 182.31 3.41716 182.409 3.54049C182.508 3.66425 182.558 3.80842 182.558 3.97217V20.9017C182.558 21.4284 182.549 21.9876 182.533 22.5797C182.517 23.1726 182.491 23.748 182.458 24.3072H182.508C182.79 23.8134 183.146 23.2213 183.577 22.5297C184.008 21.8392 184.455 21.1646 184.918 20.5067L196.099 3.94717C196.215 3.78258 196.339 3.63883 196.471 3.51508C196.604 3.39174 196.782 3.28882 197.006 3.20674C197.229 3.12465 197.507 3.06673 197.839 3.03382C198.169 3.0009 198.591 2.98507 199.105 2.98507C199.735 2.98507 200.244 3.00548 200.634 3.04632C201.023 3.08757 201.333 3.14924 201.565 3.23174C201.797 3.31424 201.959 3.41674 202.049 3.54008C202.14 3.66383 202.186 3.8155 202.186 3.99634V34.2278V34.2291ZM230.584 5.79929C230.584 6.27597 230.564 6.68306 230.522 7.02057C230.481 7.35766 230.418 7.62933 230.336 7.83559C230.253 8.04143 230.15 8.19393 230.025 8.29226C229.901 8.3906 229.764 8.44018 229.616 8.44018H221.565V34.1803C221.565 34.3445 221.512 34.4924 221.404 34.6241C221.297 34.7562 221.118 34.8628 220.87 34.9449C220.621 35.0274 220.286 35.0928 219.863 35.1424C219.441 35.192 218.915 35.2166 218.286 35.2166C217.656 35.2166 217.131 35.192 216.708 35.1424C216.286 35.0933 215.951 35.0274 215.702 34.9449C215.453 34.8628 215.275 34.7562 215.168 34.6241C215.06 34.4924 215.006 34.3441 215.006 34.1803V8.44018H206.956C206.79 8.44018 206.65 8.3906 206.534 8.29226C206.418 8.19393 206.318 8.04143 206.236 7.83559C206.153 7.62975 206.091 7.35808 206.05 7.02057C206.008 6.68348 205.987 6.27597 205.987 5.79929C205.987 5.30512 206.008 4.88636 206.05 4.54093C206.091 4.19509 206.153 3.92009 206.236 3.71383C206.318 3.50799 206.418 3.35966 206.534 3.26965C206.65 3.17965 206.79 3.13465 206.956 3.13465H229.616C229.764 3.13465 229.901 3.18007 230.025 3.26965C230.15 3.36007 230.253 3.50799 230.336 3.71383C230.418 3.91967 230.481 4.19467 230.522 4.54093C230.564 4.88636 230.584 5.30512 230.584 5.79929ZM256.502 34.2049C256.502 34.3691 256.448 34.5128 256.34 34.6362C256.232 34.7595 256.058 34.8628 255.818 34.9449C255.578 35.0274 255.255 35.0928 254.849 35.1424C254.444 35.192 253.926 35.2166 253.296 35.2166C252.684 35.2166 252.165 35.192 251.743 35.1424C251.321 35.0933 250.977 35.0274 250.713 34.9449C250.448 34.8628 250.257 34.7595 250.141 34.6362C250.025 34.5128 249.967 34.3687 249.967 34.2049V23.2968C249.089 23.3793 248.227 23.4488 247.383 23.5063C246.538 23.5643 245.684 23.5926 244.823 23.5926C243.051 23.5926 241.44 23.4363 239.992 23.1238C238.542 22.8117 237.291 22.2642 236.239 21.483C235.188 20.7013 234.376 19.6321 233.805 18.2746C233.233 16.9179 232.947 15.2028 232.947 13.1295V3.998C232.947 3.83342 232.997 3.68966 233.096 3.56633C233.195 3.44299 233.365 3.34007 233.606 3.25757C233.845 3.1759 234.169 3.11048 234.574 3.06048C234.98 3.0109 235.49 2.98673 236.102 2.98673C236.732 2.98673 237.258 3.0109 237.68 3.06048C238.103 3.11007 238.447 3.1759 238.712 3.25757C238.976 3.34007 239.167 3.44299 239.283 3.56633C239.399 3.68966 239.457 3.83383 239.457 3.998V12.4878C239.457 13.4745 239.561 14.3299 239.768 15.0541C239.974 15.7783 240.318 16.3791 240.798 16.8558C241.279 17.3329 241.912 17.6954 242.699 17.9416C243.486 18.1883 244.467 18.3116 245.643 18.3116C246.389 18.3116 247.117 18.2833 247.83 18.2254C248.542 18.1679 249.254 18.0979 249.967 18.0158V3.998C249.967 3.83342 250.025 3.68966 250.141 3.56633C250.257 3.44299 250.448 3.34007 250.713 3.25757C250.977 3.1759 251.321 3.11048 251.743 3.06048C252.165 3.0109 252.684 2.98673 253.296 2.98673C253.926 2.98673 254.444 3.0109 254.849 3.06048C255.255 3.11007 255.578 3.1759 255.818 3.25757C256.058 3.34007 256.232 3.44299 256.34 3.56633C256.448 3.68966 256.502 3.83383 256.502 3.998V34.2053V34.2049ZM289.671 34.2291C289.671 34.3941 289.617 34.5378 289.51 34.6612C289.402 34.7845 289.223 34.8874 288.975 34.9691C288.727 35.0516 288.392 35.1137 287.969 35.1549C287.547 35.1962 287.02 35.2166 286.391 35.2166C285.761 35.2166 285.236 35.1962 284.813 35.1549C284.391 35.1141 284.06 35.0516 283.82 34.9691C283.58 34.8874 283.41 34.7845 283.31 34.6612C283.211 34.5378 283.161 34.3937 283.161 34.2291V17.3983C283.161 16.7566 283.17 16.127 283.187 15.5103C283.203 14.8937 283.227 14.3461 283.26 13.8695H283.211C283.078 14.0995 282.921 14.3674 282.739 14.6707C282.557 14.9753 282.362 15.2962 282.155 15.6333C281.948 15.9703 281.728 16.3158 281.496 16.6699C281.265 17.0241 281.033 17.3654 280.801 17.6941L269.62 34.2537C269.488 34.4345 269.351 34.5903 269.211 34.7224C269.07 34.8541 268.888 34.957 268.664 35.0308C268.44 35.1049 268.166 35.1541 267.844 35.1787C267.521 35.2033 267.103 35.2158 266.589 35.2158C265.943 35.2158 265.421 35.1954 265.024 35.1541C264.627 35.1133 264.316 35.0508 264.092 34.9683C263.869 34.8866 263.715 34.7799 263.633 34.6478C263.55 34.5162 263.508 34.3603 263.508 34.1795V3.97217C263.508 3.808 263.563 3.66425 263.67 3.54049C263.778 3.41716 263.961 3.31466 264.217 3.23215C264.474 3.14965 264.81 3.0884 265.223 3.04673C265.638 3.0059 266.159 2.98548 266.788 2.98548C267.434 2.98548 267.964 3.0059 268.379 3.04673C268.793 3.08798 269.124 3.14965 269.372 3.23215C269.621 3.31466 269.795 3.41716 269.894 3.54049C269.994 3.66425 270.043 3.80842 270.043 3.97217V20.9017C270.043 21.4284 270.035 21.9876 270.019 22.5797C270.002 23.1726 269.977 23.748 269.944 24.3072H269.994C270.276 23.8134 270.631 23.2213 271.062 22.5297C271.493 21.8392 271.94 21.1646 272.403 20.5067L283.584 3.94717C283.7 3.78258 283.824 3.63883 283.957 3.51508C284.089 3.39174 284.267 3.28882 284.491 3.20674C284.715 3.12465 284.992 3.06673 285.323 3.03382C285.655 3.0009 286.076 2.98507 286.59 2.98507C287.22 2.98507 287.729 3.00548 288.119 3.04632C288.508 3.08757 288.818 3.14924 289.051 3.23174C289.282 3.31424 289.444 3.41674 289.535 3.54008C289.625 3.66383 289.671 3.8155 289.671 3.99634V34.2278L289.671 34.2291ZM320.479 34.2049C320.479 34.3853 320.429 34.5378 320.33 34.6612C320.231 34.7845 320.052 34.8874 319.795 34.9691C319.539 35.0516 319.195 35.1137 318.765 35.1549C318.334 35.1962 317.779 35.2166 317.1 35.2166C316.388 35.2166 315.812 35.1962 315.374 35.1549C314.934 35.1141 314.583 35.0478 314.318 34.9574C314.053 34.867 313.854 34.7437 313.721 34.5874C313.589 34.4312 313.489 34.2378 313.423 34.007L310.839 26.8998C310.474 25.8635 310.094 24.9955 309.696 24.2964C309.299 23.5972 308.86 23.0297 308.379 22.5934C307.899 22.1576 307.352 21.8488 306.74 21.668C306.127 21.4876 305.439 21.3967 304.677 21.3967H303.211V34.1803C303.211 34.3612 303.161 34.5128 303.062 34.6362C302.963 34.7595 302.789 34.867 302.54 34.9574C302.292 35.0478 301.961 35.1137 301.546 35.1549C301.132 35.1962 300.602 35.2166 299.956 35.2166C299.327 35.2166 298.801 35.1962 298.379 35.1549C297.956 35.1141 297.621 35.0478 297.373 34.9574C297.124 34.867 296.946 34.7595 296.838 34.6362C296.731 34.5128 296.676 34.3612 296.676 34.1803V3.99759C296.676 3.81675 296.731 3.66508 296.838 3.54133C296.946 3.41799 297.124 3.31549 297.373 3.23299C297.621 3.15049 297.956 3.08923 298.379 3.04757C298.801 3.00673 299.327 2.98632 299.956 2.98632C300.602 2.98632 301.132 3.00673 301.546 3.04757C301.961 3.08882 302.292 3.15049 302.54 3.23299C302.789 3.31549 302.963 3.41799 303.062 3.54133C303.161 3.66508 303.211 3.81675 303.211 3.99759V15.9916H304.677C305.422 15.9916 306.077 15.8933 306.64 15.6953C307.203 15.4978 307.713 15.1857 308.168 14.7578C308.623 14.3295 309.038 13.7745 309.41 13.0915C309.783 12.4094 310.143 11.5661 310.491 10.5623L312.652 4.19509C312.735 3.96509 312.835 3.77133 312.951 3.61466C313.067 3.45924 313.253 3.33591 313.51 3.24465C313.766 3.15465 314.106 3.08923 314.529 3.04757C314.951 3.00673 315.519 2.98632 316.23 2.98632C316.876 2.98632 317.41 3.00673 317.833 3.04757C318.255 3.08882 318.586 3.1459 318.827 3.22049C319.067 3.29424 319.228 3.39299 319.311 3.51633C319.394 3.64008 319.435 3.79217 319.435 3.973C319.435 4.18717 319.398 4.45051 319.323 4.7626C319.249 5.07511 319.12 5.48679 318.938 5.99638L316.777 11.6732C316.379 12.7257 315.982 13.622 315.584 14.3624C315.187 15.1028 314.769 15.732 314.329 16.2504C313.89 16.7691 313.427 17.1925 312.938 17.5212C312.449 17.8504 311.907 18.1221 311.311 18.3362V18.3608C311.973 18.6408 312.574 18.9571 313.112 19.3113C313.65 19.665 314.156 20.1138 314.628 20.6559C315.099 21.1988 315.55 21.8651 315.982 22.6547C316.413 23.4443 316.851 24.4155 317.298 25.5668L319.932 32.1807C320.197 32.8553 320.354 33.3203 320.404 33.5753C320.454 33.8299 320.479 34.0399 320.479 34.2045V34.2049ZM345.001 9.99438C345.001 11.4098 344.732 12.7303 344.193 13.9561C343.655 15.1816 342.922 16.2474 341.995 17.1516C341.067 18.0566 339.974 18.7683 338.715 19.2867C337.456 19.8054 336.106 20.0642 334.665 20.0642C333.191 20.0642 331.829 19.8133 330.578 19.3117C329.327 18.8096 328.246 18.1191 327.336 17.2383C326.425 16.3579 325.713 15.3045 325.199 14.0791C324.685 12.8536 324.429 11.5086 324.429 10.044C324.429 8.62936 324.698 7.31308 325.237 6.09513C325.775 4.87844 326.508 3.81675 327.435 2.91173C328.363 2.00754 329.456 1.29586 330.715 0.776684C331.974 0.258756 333.324 0 334.765 0C336.256 0 337.626 0.250422 338.877 0.752516C340.128 1.25419 341.208 1.94504 342.119 2.8259C343.03 3.70633 343.737 4.75885 344.243 5.9843C344.748 7.20974 345.001 8.54727 345.001 9.9948V9.99438ZM342.07 10.0936C342.07 8.99103 341.888 7.97892 341.523 7.05765C341.158 6.13638 340.653 5.33845 340.007 4.66385C339.361 3.98925 338.586 3.46674 337.684 3.09632C336.782 2.72589 335.8 2.54089 334.74 2.54089C333.63 2.54089 332.624 2.73423 331.722 3.12048C330.818 3.50758 330.045 4.038 329.399 4.7126C328.753 5.3872 328.252 6.17305 327.895 7.06932C327.539 7.96684 327.361 8.92436 327.361 9.9448C327.361 11.0473 327.543 12.0628 327.908 12.9924C328.272 13.922 328.781 14.7245 329.436 15.3991C330.09 16.0737 330.86 16.5958 331.746 16.9662C332.633 17.3362 333.614 17.5212 334.69 17.5212C335.801 17.5212 336.811 17.3279 337.722 16.9412C338.632 16.5545 339.407 16.0241 340.044 15.3495C340.682 14.6749 341.179 13.8895 341.535 12.9928C341.891 12.0965 342.07 11.1298 342.07 10.0936ZM339.56 14.4861C339.56 14.5682 339.54 14.6382 339.499 14.6962C339.457 14.7541 339.37 14.7991 339.237 14.8316C339.104 14.8645 338.926 14.8895 338.702 14.9053C338.479 14.922 338.185 14.9307 337.821 14.9307C337.456 14.9307 337.166 14.9182 336.951 14.8937C336.735 14.8691 336.566 14.832 336.441 14.7828C336.317 14.7332 336.226 14.6674 336.168 14.5849C336.11 14.5024 336.064 14.3957 336.032 14.2636L335.609 12.6353C335.444 12.0761 335.258 11.7011 335.05 11.5115C334.843 11.3223 334.54 11.2282 334.143 11.2282H333.547V14.3628C333.547 14.5766 333.452 14.7245 333.261 14.8066C333.071 14.8891 332.669 14.9303 332.056 14.9303C331.41 14.9303 330.979 14.8891 330.764 14.8066C330.548 14.7245 330.441 14.5766 330.441 14.3628V5.92221C330.441 5.47804 330.548 5.13261 330.764 4.88594C330.979 4.63927 331.319 4.51593 331.783 4.51593H334.963C335.542 4.51593 336.093 4.56552 336.615 4.66385C337.137 4.76219 337.592 4.92677 337.982 5.1572C338.371 5.3872 338.681 5.69596 338.913 6.08222C339.145 6.46931 339.261 6.94223 339.261 7.50225C339.261 8.24226 339.05 8.84311 338.627 9.30354C338.205 9.76438 337.637 10.0852 336.925 10.2661C337.356 10.3815 337.737 10.5873 338.069 10.8836C338.4 11.1794 338.673 11.6157 338.889 12.1915L339.386 13.6474C339.502 14.0591 339.56 14.3382 339.56 14.4866V14.4861ZM335.933 7.87226C335.933 7.72434 335.908 7.58017 335.858 7.44016C335.809 7.30058 335.73 7.18099 335.622 7.08265C335.515 6.98432 335.366 6.90598 335.175 6.84807C334.984 6.79057 334.748 6.76223 334.467 6.76223H333.548V9.08187H334.442C335.005 9.08187 335.395 8.96645 335.61 8.73602C335.826 8.50602 335.933 8.21768 335.933 7.87226H335.933Z" fill="#DA042A"/>
<path fill-rule="evenodd" clip-rule="evenodd" d="M35.4589 69.2811C35.4589 69.3422 35.4438 69.3942 35.4143 69.4366C35.384 69.4795 35.3315 69.5164 35.2561 69.5465C35.1804 69.5779 35.0809 69.6013 34.9562 69.6163C34.8319 69.6318 34.6757 69.6393 34.4873 69.6393C34.3063 69.6393 34.1521 69.6318 34.0239 69.6163C33.8953 69.6013 33.7958 69.5779 33.7243 69.5465C33.6521 69.5164 33.5996 69.4795 33.5662 69.4366C33.532 69.3942 33.5145 69.3426 33.5145 69.2811V56.3524H26.9017V69.2811C26.9017 69.3422 26.8842 69.3942 26.8508 69.4366C26.8166 69.4795 26.7638 69.5164 26.6919 69.5465C26.6204 69.5779 26.5229 69.6013 26.3978 69.6163C26.2735 69.6318 26.1173 69.6393 25.9289 69.6393C25.7405 69.6393 25.5843 69.6318 25.46 69.6163C25.3353 69.6013 25.2358 69.5779 25.1608 69.5465C25.0847 69.5164 25.0323 69.4795 25.0027 69.4366C24.9724 69.3942 24.9573 69.3426 24.9573 69.2811V55.4399C24.9573 55.1706 25.0233 54.9687 25.155 54.8334C25.2867 54.6989 25.4549 54.6315 25.6581 54.6315H34.7814C34.9924 54.6315 35.1582 54.6989 35.2791 54.8334C35.3995 54.9687 35.4593 55.1706 35.4593 55.4399V69.2811H35.4589ZM51.603 61.9275C51.603 63.1363 51.4632 64.2248 51.1846 65.1943C50.9061 66.1643 50.4892 66.9898 49.9352 67.6705C49.3813 68.3521 48.6859 68.8757 47.8498 69.2411C47.0126 69.6064 46.0368 69.7893 44.9218 69.7893C43.8212 69.7893 42.8698 69.6219 42.0672 69.2867C41.2645 68.9523 40.6018 68.4651 40.0773 67.8268C39.5536 67.1885 39.1632 66.3955 38.9072 65.449C38.6508 64.5021 38.523 63.4136 38.523 62.1822C38.523 61.0048 38.6628 59.9345 38.9414 58.9725C39.2199 58.0109 39.6379 57.193 40.1958 56.5194C40.7533 55.8454 41.4502 55.3265 42.2874 54.9607C43.1238 54.5958 44.0997 54.4125 45.2151 54.4125C46.2928 54.4125 47.2314 54.5783 48.0305 54.9092C48.8292 55.24 49.4939 55.7236 50.0258 56.3579C50.5568 56.993 50.9523 57.7785 51.2122 58.7127C51.4729 59.6481 51.6023 60.7196 51.6023 61.9275H51.603ZM49.5565 62.066C49.5565 61.2198 49.483 60.4328 49.3362 59.7048C49.1893 58.9777 48.9442 58.3473 48.6016 57.8122C48.2585 57.2775 47.8005 56.8605 47.2279 56.5594C46.6552 56.2591 45.9466 56.1092 45.1028 56.1092C44.2586 56.1092 43.5496 56.2706 42.977 56.5943C42.4044 56.918 41.9382 57.3489 41.5808 57.8876C41.223 58.4267 40.9666 59.0555 40.8123 59.7751C40.6577 60.4943 40.5804 61.2504 40.5804 62.0434C40.5804 62.9209 40.6527 63.7289 40.7952 64.4676C40.9382 65.2063 41.1795 65.843 41.5186 66.3777C41.8582 66.9124 42.3119 67.3286 42.881 67.6245C43.4498 67.9212 44.1642 68.0692 45.0232 68.0692C45.8748 68.0692 46.59 67.9078 47.1708 67.5841C47.7512 67.26 48.2185 66.8236 48.5732 66.2734C48.9271 65.7231 49.1796 65.0861 49.33 64.3629C49.4811 63.6397 49.5561 62.8737 49.5561 62.0656L49.5565 62.066ZM64.445 67.4571C64.445 67.5805 64.4411 67.6884 64.4337 67.7812C64.4263 67.8733 64.4135 67.9538 64.3941 68.0232C64.375 68.0922 64.3506 68.1537 64.321 68.2073C64.2903 68.262 64.2375 68.3275 64.1629 68.4036C64.0872 68.481 63.9291 68.598 63.6878 68.7555C63.4465 68.9138 63.1466 69.0673 62.7888 69.2173C62.4314 69.3672 62.02 69.4946 61.5569 69.5989C61.0935 69.7032 60.5861 69.7552 60.036 69.7552C59.0865 69.7552 58.2295 69.5937 57.4642 69.27C56.6992 68.9459 56.0478 68.4691 55.5085 67.8379C54.9693 67.2072 54.5552 66.4281 54.265 65.5002C53.9748 64.5731 53.8299 63.5052 53.8299 62.2969C53.8299 61.058 53.986 59.9532 54.2988 58.9837C54.6115 58.0137 55.0505 57.1926 55.6161 56.519C56.1814 55.845 56.8581 55.3321 57.6456 54.9782C58.4327 54.6243 59.3049 54.4474 60.2621 54.4474C60.6844 54.4474 61.0946 54.4879 61.4948 54.5684C61.8941 54.6493 62.2628 54.7509 62.6024 54.8739C62.9419 54.9972 63.243 55.14 63.5071 55.3011C63.7709 55.4634 63.9531 55.5959 64.0557 55.6994C64.1571 55.8037 64.2231 55.8827 64.2534 55.9362C64.2834 55.9902 64.3074 56.0532 64.3269 56.127C64.3459 56.2 64.3611 56.2865 64.3723 56.3865C64.3832 56.4868 64.3886 56.6058 64.3886 56.7447C64.3886 56.899 64.3813 57.0291 64.3661 57.137C64.351 57.2457 64.3288 57.3358 64.2989 57.4088C64.2686 57.4825 64.2329 57.5361 64.1913 57.5702C64.1497 57.6047 64.0984 57.6222 64.0382 57.6222C63.9322 57.6222 63.7853 57.5468 63.5977 57.3969C63.4089 57.2469 63.1661 57.0811 62.8681 56.9002C62.5701 56.7193 62.208 56.5535 61.7826 56.4035C61.3565 56.2536 60.8456 56.179 60.2508 56.179C59.6032 56.179 59.0131 56.3115 58.482 56.5773C57.9502 56.8427 57.4964 57.233 57.1192 57.7487C56.7424 58.2648 56.4506 58.894 56.2432 59.6362C56.0353 60.3792 55.932 61.2278 55.932 62.1822C55.932 63.1291 56.0322 63.9654 56.2319 64.6925C56.4316 65.4201 56.7183 66.0282 57.0912 66.5165C57.4642 67.0057 57.9222 67.3754 58.4653 67.6249C59.0077 67.8752 59.6215 68.0002 60.3075 68.0002C60.888 68.0002 61.3945 67.9272 61.8281 67.7812C62.2609 67.6348 62.6307 67.471 62.9357 67.2901C63.241 67.1092 63.492 66.9458 63.6878 66.7998C63.8836 66.6538 64.0382 66.5804 64.1509 66.5804C64.2037 66.5804 64.2492 66.5919 64.2865 66.6149C64.3241 66.6383 64.3544 66.6828 64.3774 66.7482C64.3999 66.8133 64.4174 66.9041 64.4283 67.0192C64.4395 67.135 64.4446 67.281 64.4446 67.4579L64.445 67.4571ZM76.1914 55.4864C76.1914 55.6323 76.184 55.7593 76.1692 55.8672C76.1541 55.9751 76.1288 56.0616 76.095 56.127C76.0616 56.1921 76.02 56.2405 75.9715 56.271C75.9221 56.302 75.8674 56.3174 75.8071 56.3174H71.6919V69.27C71.6919 69.3311 71.6771 69.3847 71.6464 69.4311C71.6161 69.4775 71.5637 69.514 71.4887 69.541C71.4125 69.5679 71.3131 69.5906 71.1888 69.6104C71.0644 69.6298 70.9083 69.6393 70.7199 69.6393C70.5388 69.6393 70.3846 69.6298 70.2564 69.6104C70.1278 69.5906 70.0264 69.5679 69.951 69.541C69.8753 69.5144 69.8224 69.4775 69.7929 69.4311C69.7626 69.3847 69.7479 69.3311 69.7479 69.27V56.3174H65.6326C65.572 56.3174 65.5172 56.302 65.4683 56.271C65.4189 56.2405 65.3793 56.1921 65.3494 56.127C65.3191 56.0616 65.295 55.9751 65.2756 55.8672C65.2565 55.7593 65.2472 55.6323 65.2472 55.4864C65.2472 55.34 65.2565 55.2111 65.2756 55.0992C65.295 54.9877 65.3191 54.8973 65.3494 54.8282C65.3793 54.7588 65.4185 54.7088 65.4683 54.6783C65.5168 54.6473 65.5716 54.6319 65.6326 54.6319H75.8071C75.867 54.6319 75.9217 54.6473 75.9715 54.6783C76.02 54.7092 76.0616 54.7588 76.095 54.8282C76.1288 54.8973 76.1537 54.9877 76.1692 55.0992C76.184 55.2111 76.1914 55.34 76.1914 55.4864ZM87.2925 59.0071C87.2925 59.7532 87.172 60.4272 86.9308 61.027C86.6895 61.6272 86.3449 62.1394 85.897 62.5627C85.4479 62.9859 84.8982 63.3128 84.2463 63.5441C83.5944 63.7746 82.8163 63.8904 81.9115 63.8904H80.2499V69.2704C80.2499 69.3315 80.2324 69.3851 80.199 69.4315C80.1648 69.4779 80.112 69.5144 80.0401 69.5414C79.9686 69.5683 79.8711 69.591 79.746 69.6108C79.6217 69.6302 79.4655 69.6397 79.2771 69.6397C79.0887 69.6397 78.9325 69.6302 78.8082 69.6108C78.6835 69.591 78.5841 69.5683 78.5091 69.5414C78.4329 69.5148 78.3801 69.4779 78.351 69.4315C78.3207 69.3851 78.3055 69.3315 78.3055 69.2704V55.4868C78.3055 55.1793 78.3844 54.9596 78.5433 54.8286C78.701 54.6973 78.8785 54.6323 79.0743 54.6323H82.2056C82.523 54.6323 82.8256 54.6458 83.1162 54.6727C83.406 54.6997 83.7487 54.7572 84.1449 54.8457C84.5404 54.9346 84.9436 55.0996 85.3539 55.3424C85.7645 55.5847 86.1134 55.8835 86.3997 56.2369C86.6864 56.5908 86.9063 57.001 87.0613 57.4667C87.2155 57.932 87.2925 58.4465 87.2925 59.0079V59.0071ZM85.2463 59.1685C85.2463 58.5608 85.1352 58.0526 84.913 57.6444C84.6911 57.2366 84.4157 56.9323 84.0882 56.7324C83.7599 56.5325 83.4208 56.4055 83.0707 56.3516C82.7203 56.2976 82.3792 56.271 82.0475 56.271H80.2503V62.262H82.0024C82.5898 62.262 83.0781 62.1854 83.4662 62.0315C83.8543 61.8772 84.1799 61.6637 84.444 61.3908C84.7078 61.1175 84.9075 60.7906 85.0431 60.409C85.1787 60.0282 85.2463 59.6144 85.2463 59.1681V59.1685ZM102.521 61.9271C102.521 63.1359 102.381 64.2244 102.103 65.194C101.824 66.1639 101.407 66.9894 100.853 67.6701C100.299 68.3517 99.6041 68.8753 98.7681 69.2407C97.9309 69.606 96.955 69.7889 95.8396 69.7889C94.7394 69.7889 93.788 69.6215 92.985 69.2863C92.1828 68.9519 91.52 68.4647 90.9955 67.8264C90.4719 67.1881 90.0814 66.3952 89.8254 65.4486C89.569 64.5017 89.4408 63.4132 89.4408 62.1818C89.4408 61.0044 89.5807 59.9341 89.8596 58.9721C90.1382 58.0106 90.5562 57.1926 91.114 56.519C91.6715 55.845 92.3685 55.3261 93.2057 54.9603C94.0421 54.5954 95.018 54.4121 96.1329 54.4121C97.211 54.4121 98.1496 54.5779 98.9487 54.9088C99.7475 55.2396 100.412 55.7232 100.944 56.3575C101.475 56.9926 101.871 57.7781 102.13 58.7123C102.391 59.6477 102.52 60.7192 102.52 61.9271H102.521ZM100.475 62.0656C100.475 61.2194 100.401 60.4324 100.254 59.7044C100.108 58.9773 99.8624 58.347 99.5198 57.8118C99.1768 57.2771 98.7187 56.8601 98.1461 56.559C97.5735 56.2587 96.8649 56.1088 96.021 56.1088C95.1769 56.1088 94.4679 56.2702 93.8952 56.5939C93.3222 56.9177 92.8564 57.3485 92.499 57.8872C92.1412 58.4263 91.8848 59.0551 91.7306 59.7747C91.576 60.4939 91.4986 61.25 91.4986 62.043C91.4986 62.9205 91.5709 63.7286 91.7135 64.4672C91.8564 65.2059 92.0977 65.8426 92.4368 66.3773C92.7764 66.9121 93.2301 67.3282 93.7993 67.6241C94.368 67.9209 95.0825 68.0688 95.9414 68.0688C96.793 68.0688 97.5082 67.9074 98.089 67.5837C98.6694 67.2596 99.1367 66.8232 99.4914 66.273C99.8454 65.7228 100.098 65.0857 100.248 64.3625C100.399 63.6393 100.474 62.8733 100.474 62.0652L100.475 62.0656ZM116.562 69.2807C116.562 69.3418 116.547 69.3938 116.517 69.4362C116.487 69.4791 116.435 69.516 116.359 69.5461C116.283 69.5775 116.183 69.6009 116.059 69.6159C115.935 69.6314 115.778 69.6389 115.59 69.6389C115.409 69.6389 115.255 69.6314 115.127 69.6159C114.998 69.6009 114.899 69.5775 114.827 69.5461C114.755 69.516 114.704 69.4791 114.674 69.4362C114.644 69.3938 114.629 69.3422 114.629 69.2807V59.4799C114.629 59.2411 114.633 58.9928 114.64 58.7349C114.648 58.4771 114.66 58.245 114.674 58.0371H114.651C114.592 58.145 114.526 58.2597 114.454 58.3831C114.382 58.506 114.305 58.6354 114.222 58.7698C114.139 58.9043 114.056 59.0392 113.974 59.1737C113.891 59.3089 113.807 59.4414 113.725 59.572L107.394 69.2922C107.349 69.3533 107.304 69.4073 107.259 69.4537C107.213 69.5001 107.155 69.5362 107.083 69.5636C107.011 69.5902 106.927 69.61 106.828 69.6215C106.731 69.6326 106.607 69.6389 106.456 69.6389C106.282 69.6389 106.141 69.6314 106.032 69.6159C105.923 69.6009 105.835 69.5751 105.771 69.5406C105.708 69.5065 105.662 69.4656 105.636 69.4196C105.61 69.3732 105.596 69.3156 105.596 69.2466V54.9199C105.596 54.8659 105.613 54.8163 105.647 54.7699C105.68 54.7235 105.737 54.6854 105.817 54.6545C105.896 54.6239 105.997 54.6005 106.122 54.5851C106.246 54.5696 106.395 54.5621 106.568 54.5621C106.757 54.5621 106.913 54.5696 107.037 54.5851C107.162 54.6005 107.261 54.6239 107.337 54.6545C107.413 54.6854 107.466 54.7235 107.495 54.7699C107.525 54.8163 107.541 54.8663 107.541 54.9199V64.7786C107.541 64.9865 107.539 65.2094 107.536 65.4482C107.532 65.687 107.518 65.9179 107.495 66.1405H107.518C107.639 65.9489 107.78 65.7156 107.941 65.4419C108.104 65.169 108.275 64.8976 108.456 64.6283L114.775 54.8965C114.813 54.8429 114.855 54.7945 114.9 54.7521C114.946 54.7092 115.003 54.6751 115.075 54.6485C115.147 54.6216 115.232 54.6001 115.33 54.5843C115.428 54.5688 115.552 54.5613 115.703 54.5613C115.876 54.5613 116.017 54.5688 116.127 54.5843C116.236 54.5997 116.323 54.6255 116.386 54.6596C116.451 54.6942 116.496 54.7322 116.522 54.7747C116.548 54.8171 116.562 54.8739 116.562 54.9429V69.2803L116.562 69.2807ZM136.357 69.2696C136.357 69.3307 136.342 69.3843 136.313 69.4307C136.282 69.4771 136.23 69.5136 136.154 69.5406C136.079 69.5675 135.982 69.5902 135.866 69.61C135.749 69.6294 135.597 69.6389 135.408 69.6389C135.234 69.6389 135.086 69.6294 134.961 69.61C134.837 69.5902 134.74 69.5675 134.667 69.5406C134.596 69.514 134.545 69.4771 134.515 69.4307C134.485 69.3843 134.47 69.3307 134.47 69.2696V56.2587H134.447L129.235 69.3271C129.212 69.3811 129.181 69.4271 129.139 69.4652C129.097 69.5033 129.037 69.5362 128.958 69.5636C128.879 69.5902 128.785 69.61 128.676 69.6215C128.567 69.6326 128.436 69.6389 128.286 69.6389C128.127 69.6389 127.991 69.6314 127.879 69.6159C127.766 69.6009 127.671 69.579 127.596 69.5521C127.52 69.5255 127.462 69.4922 127.421 69.4537C127.379 69.4156 127.351 69.3736 127.336 69.3271L122.35 56.2587H122.339V69.2696C122.339 69.3307 122.324 69.3843 122.294 69.4307C122.264 69.4771 122.211 69.5136 122.136 69.5406C122.06 69.5675 121.962 69.5902 121.842 69.61C121.721 69.6294 121.567 69.6389 121.378 69.6389C121.197 69.6389 121.046 69.6294 120.926 69.61C120.805 69.5902 120.709 69.5675 120.637 69.5406C120.566 69.514 120.517 69.4771 120.491 69.4307C120.464 69.3843 120.451 69.3307 120.451 69.2696V55.532C120.451 55.2083 120.534 54.9778 120.7 54.8394C120.865 54.7009 121.05 54.6315 121.253 54.6315H122.429C122.67 54.6315 122.881 54.6545 123.062 54.7009C123.243 54.7469 123.402 54.8199 123.537 54.9199C123.673 55.0202 123.786 55.1468 123.876 55.3007C123.966 55.455 124.046 55.6359 124.114 55.8438L128.353 66.6609H128.409L132.818 55.8787C132.902 55.6478 132.992 55.4519 133.09 55.29C133.189 55.1285 133.296 54.9992 133.412 54.9032C133.529 54.8064 133.66 54.7374 133.802 54.6954C133.945 54.6529 134.112 54.6319 134.3 54.6319H135.532C135.645 54.6319 135.752 54.6497 135.855 54.6838C135.956 54.7188 136.042 54.7727 136.114 54.8457C136.186 54.9195 136.244 55.0115 136.289 55.1222C136.335 55.2341 136.357 55.3705 136.357 55.5324V69.27L136.357 69.2696ZM155.425 65.1253C155.425 65.7021 155.336 66.2579 155.159 66.7926C154.982 67.3274 154.696 67.7991 154.3 68.2069C153.904 68.6155 153.379 68.9443 152.723 69.1939C152.067 69.4442 151.174 69.5695 150.044 69.5695H146.517C146.336 69.5695 146.17 69.5096 146.019 69.3902C145.868 69.2708 145.793 69.0574 145.793 68.7496V55.4392C145.793 55.1389 145.868 54.929 146.019 54.8096C146.17 54.6906 146.332 54.6307 146.505 54.6307H154.091C154.159 54.6307 154.219 54.6462 154.272 54.6771C154.325 54.708 154.368 54.7576 154.402 54.8271C154.436 54.8961 154.46 54.9826 154.476 55.0869C154.491 55.1908 154.499 55.3198 154.499 55.4737C154.499 55.6121 154.491 55.7351 154.476 55.843C154.461 55.9509 154.436 56.0374 154.402 56.1028C154.368 56.1683 154.327 56.2183 154.278 56.2528C154.229 56.2869 154.17 56.3048 154.102 56.3048H147.726V60.9802H150.405C151.325 60.9802 152.083 61.0766 152.678 61.2682C153.273 61.4606 153.775 61.7379 154.182 62.0989C154.589 62.4607 154.898 62.8979 155.108 63.4096C155.319 63.9217 155.425 64.493 155.425 65.1241L155.425 65.1253ZM153.413 65.2642C153.413 64.848 153.347 64.4747 153.215 64.1435C153.082 63.8134 152.892 63.5322 152.643 63.3013C152.395 63.0708 152.078 62.8919 151.694 62.7646C151.309 62.6376 150.801 62.5742 150.168 62.5742H147.726V67.9538H150.224C150.827 67.9538 151.321 67.8923 151.705 67.7689C152.09 67.6459 152.405 67.4674 152.65 67.233C152.894 66.9981 153.082 66.7153 153.215 66.3844C153.347 66.0536 153.413 65.6799 153.413 65.265V65.2642ZM164.107 65.4137C163.753 66.3067 163.425 67.0354 163.124 67.6011C162.822 68.1672 162.513 68.6071 162.196 68.9229C161.879 69.2383 161.536 69.4545 161.168 69.5695C160.798 69.6842 160.372 69.7421 159.89 69.7421C159.725 69.7421 159.557 69.7306 159.388 69.708C159.218 69.6842 159.057 69.652 158.907 69.6096C158.756 69.5671 158.622 69.5191 158.505 69.4648C158.388 69.4108 158.304 69.3632 158.251 69.3208C158.198 69.278 158.159 69.2323 158.132 69.182C158.106 69.1324 158.084 69.0689 158.064 68.9915C158.045 68.915 158.032 68.819 158.025 68.7027C158.017 68.5877 158.014 68.4493 158.014 68.2874C158.014 67.9946 158.042 67.7832 158.099 67.6523C158.155 67.521 158.24 67.4559 158.353 67.4559C158.413 67.4559 158.483 67.4789 158.562 67.5253C158.641 67.5718 158.737 67.6257 158.851 67.6868C158.963 67.7483 159.101 67.8022 159.263 67.8487C159.425 67.8951 159.616 67.9181 159.834 67.9181C160.022 67.9181 160.198 67.8963 160.36 67.8538C160.522 67.8114 160.677 67.7213 160.824 67.5829C160.97 67.4444 161.123 67.25 161.281 66.9993C161.439 66.7498 161.612 66.409 161.801 65.9778L156.589 55.3118C156.521 55.1575 156.481 55.0306 156.47 54.9302C156.459 54.8298 156.485 54.7529 156.549 54.6997C156.613 54.6458 156.717 54.6093 156.86 54.5898C157.003 54.57 157.192 54.5605 157.425 54.5605C157.644 54.5605 157.819 54.568 157.951 54.5835C158.083 54.599 158.19 54.6247 158.273 54.6589C158.355 54.6934 158.422 54.7398 158.471 54.7973C158.52 54.8552 158.563 54.931 158.601 55.023L161.212 60.4717C161.507 61.0794 161.783 61.6665 162.043 62.2322C162.304 62.7979 162.558 63.3612 162.806 63.9233H162.841C163.044 63.3386 163.253 62.7558 163.468 62.1743C163.683 61.5939 163.926 60.9564 164.198 60.2642L166.244 54.9302C166.266 54.8608 166.299 54.8036 166.34 54.7572C166.382 54.7108 166.441 54.6727 166.521 54.6418C166.6 54.6112 166.709 54.5898 166.849 54.5783C166.988 54.5668 167.167 54.5605 167.386 54.5605C167.612 54.5605 167.792 54.572 167.928 54.595C168.064 54.6184 168.162 54.6529 168.223 54.6993C168.283 54.7453 168.313 54.8064 168.313 54.8834C168.313 54.9607 168.291 55.0528 168.245 55.1615L164.107 65.4121V65.4137ZM182.942 73.2057C182.942 73.2675 182.931 73.3179 182.908 73.3564C182.886 73.3945 182.843 73.425 182.779 73.4484C182.715 73.4714 182.63 73.4909 182.524 73.5064C182.418 73.5214 182.276 73.529 182.095 73.529C181.943 73.529 181.816 73.5214 181.71 73.5064C181.604 73.4909 181.52 73.4714 181.456 73.4484C181.392 73.425 181.346 73.3945 181.32 73.3564C181.293 73.3179 181.28 73.2675 181.28 73.2057V69.5695H170.269V73.2057C170.269 73.2675 170.256 73.3179 170.229 73.3564C170.203 73.3945 170.158 73.425 170.094 73.4484C170.03 73.4714 169.945 73.4909 169.839 73.5064C169.734 73.5214 169.602 73.529 169.444 73.529C169.27 73.529 169.131 73.5214 169.025 73.5064C168.92 73.4909 168.835 73.4714 168.771 73.4484C168.707 73.425 168.662 73.3945 168.635 73.3564C168.609 73.3179 168.596 73.2675 168.596 73.2057V68.4612C168.581 68.2612 168.61 68.1144 168.686 68.0224C168.762 67.9304 168.878 67.884 169.037 67.884H169.885C170.096 67.6075 170.291 67.3238 170.472 67.0354C170.654 66.7466 170.827 66.4063 170.993 66.0139C171.158 65.6216 171.32 65.144 171.479 64.5822C171.637 64.0201 171.793 63.3259 171.948 62.4984C172.102 61.6713 172.258 60.6843 172.417 59.5378C172.575 58.3914 172.741 57.0291 172.915 55.4515C172.96 55.1742 173.037 54.9683 173.146 54.833C173.255 54.6985 173.411 54.6311 173.615 54.6311H180.364C180.568 54.6311 180.731 54.6985 180.856 54.833C180.98 54.9683 181.042 55.1702 181.042 55.4396V67.884H182.501C182.659 67.884 182.772 67.9316 182.84 68.028C182.908 68.1244 182.941 68.2731 182.941 68.4727V73.2057H182.942ZM179.098 56.3286H174.758C174.599 57.7523 174.443 58.9952 174.289 60.0575C174.134 61.1199 173.983 62.0434 173.836 62.8284C173.69 63.6135 173.54 64.2772 173.39 64.8195C173.239 65.3622 173.087 65.8239 172.932 66.2051C172.778 66.586 172.62 66.9069 172.457 67.1683C172.295 67.4301 172.127 67.6689 171.954 67.8844H179.099V56.3286H179.098ZM191.158 65.4137C190.805 66.3067 190.476 67.0354 190.176 67.6011C189.874 68.1672 189.564 68.6071 189.248 68.9229C188.931 69.2383 188.588 69.4545 188.219 69.5695C187.85 69.6842 187.424 69.7421 186.942 69.7421C186.777 69.7421 186.608 69.7306 186.439 69.708C186.269 69.6842 186.109 69.652 185.958 69.6096C185.807 69.5671 185.674 69.5191 185.557 69.4648C185.44 69.4108 185.356 69.3632 185.303 69.3208C185.25 69.278 185.211 69.2323 185.184 69.182C185.158 69.1324 185.136 69.0689 185.116 68.9915C185.097 68.915 185.084 68.819 185.077 68.7027C185.069 68.5877 185.065 68.4493 185.065 68.2874C185.065 67.9946 185.094 67.7832 185.15 67.6523C185.206 67.521 185.292 67.4559 185.405 67.4559C185.465 67.4559 185.535 67.4789 185.614 67.5253C185.693 67.5718 185.789 67.6257 185.903 67.6868C186.015 67.7483 186.153 67.8022 186.315 67.8487C186.477 67.8951 186.667 67.9181 186.886 67.9181C187.074 67.9181 187.249 67.8963 187.411 67.8538C187.573 67.8114 187.728 67.7213 187.875 67.5829C188.022 67.4444 188.174 67.25 188.333 66.9993C188.491 66.7498 188.664 66.409 188.852 65.9778L183.641 55.3118C183.573 55.1575 183.533 55.0306 183.522 54.9302C183.511 54.8298 183.537 54.7529 183.601 54.6997C183.665 54.6458 183.769 54.6093 183.912 54.5898C184.055 54.57 184.243 54.5605 184.477 54.5605C184.695 54.5605 184.871 54.568 185.003 54.5835C185.135 54.599 185.242 54.6247 185.325 54.6589C185.407 54.6934 185.473 54.7398 185.523 54.7973C185.572 54.8552 185.615 54.931 185.653 55.023L188.264 60.4717C188.558 61.0794 188.835 61.6665 189.095 62.2322C189.355 62.7979 189.609 63.3612 189.858 63.9233H189.892C190.096 63.3386 190.305 62.7558 190.52 62.1743C190.735 61.5939 190.978 60.9564 191.249 60.2642L193.295 54.9302C193.318 54.8608 193.35 54.8036 193.392 54.7572C193.433 54.7108 193.493 54.6727 193.572 54.6418C193.651 54.6112 193.761 54.5898 193.901 54.5783C194.04 54.5668 194.219 54.5605 194.437 54.5605C194.663 54.5605 194.844 54.572 194.98 54.595C195.116 54.6184 195.213 54.6529 195.274 54.6993C195.334 54.7453 195.365 54.8064 195.365 54.8834C195.365 54.9607 195.342 55.0528 195.297 55.1615L191.158 65.4121V65.4137ZM215.634 73.2057C215.634 73.2675 215.623 73.3195 215.601 73.362C215.578 73.4044 215.535 73.4365 215.471 73.4603C215.407 73.4829 215.32 73.5008 215.21 73.5123C215.101 73.5238 214.959 73.5298 214.786 73.5298C214.628 73.5298 214.496 73.5222 214.39 73.5071C214.285 73.4917 214.2 73.4722 214.136 73.4492C214.072 73.4258 214.027 73.3953 214 73.3572C213.974 73.3187 213.961 73.2683 213.961 73.2065V69.5703H198.19C197.987 69.5703 197.819 69.5029 197.687 69.3684C197.555 69.2335 197.489 69.0316 197.489 68.7619V54.9088C197.489 54.8548 197.507 54.8052 197.54 54.7588C197.574 54.7124 197.627 54.6763 197.698 54.6493C197.77 54.6224 197.868 54.6009 197.992 54.5851C198.117 54.5696 198.269 54.5621 198.45 54.5621C198.639 54.5621 198.793 54.5696 198.914 54.5851C199.035 54.6005 199.133 54.622 199.208 54.6493C199.283 54.6759 199.336 54.7124 199.366 54.7588C199.397 54.8052 199.412 54.8552 199.412 54.9088V67.8844H204.635V54.9088C204.635 54.8548 204.652 54.8052 204.686 54.7588C204.719 54.7124 204.772 54.6763 204.844 54.6493C204.915 54.6224 205.013 54.6009 205.138 54.5851C205.262 54.5696 205.414 54.5621 205.595 54.5621C205.777 54.5621 205.928 54.5696 206.048 54.5851C206.169 54.6005 206.266 54.622 206.342 54.6493C206.417 54.6759 206.472 54.7124 206.506 54.7588C206.54 54.8052 206.557 54.8552 206.557 54.9088V67.8844H211.78V54.9088C211.78 54.8548 211.795 54.8052 211.826 54.7588C211.856 54.7124 211.908 54.6763 211.984 54.6493C212.059 54.6224 212.159 54.6009 212.283 54.5851C212.407 54.5696 212.56 54.5621 212.741 54.5621C212.922 54.5621 213.074 54.5696 213.199 54.5851C213.323 54.6005 213.42 54.622 213.493 54.6493C213.564 54.6759 213.617 54.7124 213.651 54.7588C213.684 54.8052 213.702 54.8552 213.702 54.9088V67.8844H215.194C215.352 67.8844 215.466 67.9268 215.534 68.0113C215.601 68.0958 215.635 68.2386 215.635 68.4385V73.2061L215.634 73.2057ZM226.228 68.7499C226.228 68.8884 226.22 69.0098 226.205 69.1133C226.19 69.2177 226.163 69.3037 226.126 69.3732C226.088 69.4422 226.045 69.493 225.996 69.5231C225.947 69.5541 225.892 69.5695 225.832 69.5695H218.811C218.638 69.5695 218.474 69.5096 218.32 69.3902C218.165 69.2708 218.088 69.0614 218.088 68.7611V55.4392C218.088 55.1389 218.165 54.929 218.32 54.8096C218.474 54.6906 218.638 54.6307 218.811 54.6307H225.753C225.812 54.6307 225.867 54.6462 225.917 54.6771C225.965 54.708 226.005 54.7576 226.035 54.8271C226.066 54.8961 226.09 54.9826 226.109 55.0869C226.128 55.1908 226.137 55.3198 226.137 55.4737C226.137 55.6121 226.128 55.7331 226.109 55.8366C226.09 55.941 226.066 56.0259 226.035 56.0913C226.005 56.1568 225.966 56.2052 225.917 56.2353C225.867 56.2667 225.813 56.2817 225.753 56.2817H220.032V60.9683H224.938C224.998 60.9683 225.053 60.9858 225.103 61.0203C225.151 61.0552 225.193 61.1036 225.227 61.1651C225.261 61.2262 225.285 61.3111 225.3 61.4186C225.315 61.5269 225.323 61.6538 225.323 61.8002C225.323 61.9379 225.315 62.0573 225.3 62.1576C225.285 62.258 225.261 62.3393 225.227 62.4004C225.193 62.4611 225.151 62.5055 225.103 62.5329C225.053 62.5595 224.999 62.5734 224.938 62.5734H220.032V67.9189H225.832C225.891 67.9189 225.946 67.9339 225.996 67.9645C226.044 67.9954 226.088 68.0438 226.126 68.1093C226.163 68.1747 226.19 68.2592 226.205 68.3628C226.22 68.4671 226.228 68.5956 226.228 68.7496V68.7499ZM237.695 68.7499C237.695 68.8884 237.687 69.0098 237.673 69.1133C237.658 69.2177 237.63 69.3037 237.593 69.3732C237.556 69.4422 237.512 69.493 237.463 69.5231C237.414 69.5541 237.359 69.5695 237.299 69.5695H230.279C230.105 69.5695 229.941 69.5096 229.787 69.3902C229.632 69.2708 229.555 69.0614 229.555 68.7611V55.4392C229.555 55.1389 229.632 54.929 229.787 54.8096C229.941 54.6906 230.105 54.6307 230.279 54.6307H237.22C237.28 54.6307 237.334 54.6462 237.384 54.6771C237.433 54.708 237.472 54.7576 237.503 54.8271C237.533 54.8961 237.557 54.9826 237.577 55.0869C237.595 55.1908 237.605 55.3198 237.605 55.4737C237.605 55.6121 237.595 55.7331 237.577 55.8366C237.557 55.941 237.533 56.0259 237.503 56.0913C237.472 56.1568 237.433 56.2052 237.384 56.2353C237.335 56.2667 237.28 56.2817 237.22 56.2817H231.5V60.9683H236.406C236.466 60.9683 236.521 60.9858 236.571 61.0203C236.619 61.0552 236.661 61.1036 236.695 61.1651C236.729 61.2262 236.753 61.3111 236.768 61.4186C236.783 61.5269 236.79 61.6538 236.79 61.8002C236.79 61.9379 236.783 62.0573 236.768 62.1576C236.753 62.258 236.729 62.3393 236.695 62.4004C236.661 62.4611 236.619 62.5055 236.571 62.5329C236.521 62.5595 236.466 62.5734 236.406 62.5734H231.5V67.9189H237.299C237.359 67.9189 237.414 67.9339 237.463 67.9645C237.512 67.9954 237.556 68.0438 237.593 68.1093C237.631 68.1747 237.658 68.2592 237.673 68.3628C237.688 68.4671 237.695 68.5956 237.695 68.7496L237.695 68.7499ZM255.737 65.2868C255.737 65.7557 255.68 66.1893 255.563 66.5856C255.446 66.9819 255.282 67.3381 255.071 67.6531C254.86 67.9689 254.605 68.2454 254.307 68.4846C254.01 68.7234 253.675 68.9233 253.301 69.0844C252.928 69.2466 252.529 69.368 252.104 69.4485C251.677 69.5291 251.189 69.5699 250.639 69.5699H246.818C246.645 69.5699 246.481 69.51 246.327 69.3906C246.172 69.2712 246.095 69.0618 246.095 68.7615V55.4396C246.095 55.1393 246.172 54.9294 246.327 54.81C246.481 54.691 246.645 54.6311 246.818 54.6311H250.142C251.016 54.6311 251.732 54.7156 252.29 54.8846C252.848 55.054 253.313 55.3003 253.686 55.6232C254.059 55.9469 254.34 56.3432 254.529 56.8129C254.717 57.2826 254.811 57.813 254.811 58.4061C254.811 58.7599 254.77 59.0983 254.687 59.4216C254.604 59.7453 254.481 60.0432 254.319 60.3166C254.157 60.5895 253.954 60.8338 253.709 61.0493C253.464 61.2651 253.184 61.4424 252.867 61.5808C253.266 61.6578 253.639 61.7982 253.986 62.0021C254.332 62.206 254.636 62.4655 254.896 62.7812C255.156 63.0966 255.361 63.4663 255.512 63.8892C255.663 64.3125 255.738 64.7782 255.738 65.2864L255.737 65.2868ZM252.81 58.6028C252.81 58.2414 252.761 57.9142 252.663 57.6214C252.565 57.3286 252.41 57.0803 252.2 56.8764C251.988 56.6729 251.714 56.5174 251.374 56.4091C251.034 56.3012 250.587 56.2476 250.029 56.2476H248.017V61.085H250.232C250.738 61.085 251.144 61.0179 251.454 60.8826C251.763 60.7478 252.018 60.5669 252.222 60.34C252.425 60.1134 252.574 59.8473 252.668 59.5438C252.763 59.2399 252.809 58.9265 252.809 58.6032L252.81 58.6028ZM253.692 65.4018C253.692 64.9559 253.622 64.5628 253.483 64.2244C253.343 63.886 253.14 63.6012 252.872 63.3703C252.605 63.1399 252.269 62.9637 251.866 62.8451C251.463 62.7257 250.956 62.6658 250.346 62.6658H248.017V67.9308H250.843C251.288 67.9308 251.676 67.8768 252.008 67.7685C252.339 67.6606 252.632 67.5011 252.884 67.2897C253.136 67.0783 253.334 66.8145 253.477 66.4991C253.62 66.1833 253.692 65.818 253.692 65.4022V65.4018ZM274.594 69.2696C274.594 69.3307 274.58 69.3843 274.55 69.4307C274.519 69.4771 274.467 69.5136 274.392 69.5406C274.316 69.5675 274.22 69.5902 274.103 69.61C273.986 69.6294 273.834 69.6389 273.645 69.6389C273.472 69.6389 273.323 69.6294 273.199 69.61C273.074 69.5902 272.977 69.5675 272.904 69.5406C272.833 69.514 272.782 69.4771 272.752 69.4307C272.722 69.3843 272.707 69.3307 272.707 69.2696V56.2587H272.685L267.473 69.3271C267.45 69.3811 267.418 69.4271 267.376 69.4652C267.335 69.5033 267.274 69.5362 267.195 69.5636C267.116 69.5902 267.022 69.61 266.914 69.6215C266.804 69.6326 266.673 69.6389 266.523 69.6389C266.365 69.6389 266.229 69.6314 266.116 69.6159C266.003 69.6009 265.909 69.579 265.833 69.5521C265.757 69.5255 265.7 69.4922 265.658 69.4537C265.616 69.4156 265.588 69.3736 265.573 69.3271L260.587 56.2587H260.576V69.2696C260.576 69.3307 260.561 69.3843 260.531 69.4307C260.501 69.4771 260.448 69.5136 260.373 69.5406C260.298 69.5675 260.2 69.5902 260.079 69.61C259.958 69.6294 259.804 69.6389 259.615 69.6389C259.434 69.6389 259.284 69.6294 259.163 69.61C259.042 69.5902 258.946 69.5675 258.875 69.5406C258.803 69.514 258.754 69.4771 258.728 69.4307C258.702 69.3843 258.688 69.3307 258.688 69.2696V55.532C258.688 55.2083 258.771 54.9778 258.937 54.8394C259.103 54.7009 259.288 54.6315 259.491 54.6315H260.666C260.908 54.6315 261.118 54.6545 261.299 54.7009C261.481 54.7469 261.639 54.8199 261.775 54.9199C261.91 55.0202 262.023 55.1468 262.113 55.3007C262.204 55.455 262.284 55.6359 262.351 55.8438L266.59 66.6609H266.647L271.056 55.8787C271.139 55.6478 271.229 55.4519 271.328 55.29C271.426 55.1285 271.533 54.9992 271.65 54.9032C271.767 54.8064 271.897 54.7374 272.04 54.6954C272.183 54.6529 272.349 54.6319 272.537 54.6319H273.769C273.882 54.6319 273.99 54.6497 274.092 54.6838C274.193 54.7188 274.279 54.7727 274.351 54.8457C274.423 54.9195 274.481 55.0115 274.526 55.1222C274.572 55.2341 274.594 55.3705 274.594 55.5324V69.27L274.594 69.2696ZM286.624 68.7499C286.624 68.8884 286.616 69.0098 286.601 69.1133C286.586 69.2177 286.559 69.3037 286.521 69.3732C286.484 69.4422 286.441 69.493 286.392 69.5231C286.342 69.5541 286.288 69.5695 286.227 69.5695H279.207C279.034 69.5695 278.87 69.5096 278.716 69.3902C278.561 69.2708 278.484 69.0614 278.484 68.7611V55.4392C278.484 55.1389 278.561 54.929 278.716 54.8096C278.87 54.6906 279.034 54.6307 279.207 54.6307H286.148C286.208 54.6307 286.263 54.6462 286.312 54.6771C286.361 54.708 286.401 54.7576 286.431 54.8271C286.462 54.8961 286.486 54.9826 286.505 55.0869C286.524 55.1908 286.533 55.3198 286.533 55.4737C286.533 55.6121 286.524 55.7331 286.505 55.8366C286.486 55.941 286.462 56.0259 286.431 56.0913C286.401 56.1568 286.361 56.2052 286.312 56.2353C286.263 56.2667 286.209 56.2817 286.148 56.2817H280.428V60.9683H285.334C285.394 60.9683 285.449 60.9858 285.499 61.0203C285.547 61.0552 285.589 61.1036 285.623 61.1651C285.657 61.2262 285.681 61.3111 285.696 61.4186C285.711 61.5269 285.719 61.6538 285.719 61.8002C285.719 61.9379 285.711 62.0573 285.696 62.1576C285.681 62.258 285.657 62.3393 285.623 62.4004C285.589 62.4611 285.547 62.5055 285.499 62.5329C285.449 62.5595 285.394 62.5734 285.334 62.5734H280.428V67.9189H286.227C286.287 67.9189 286.342 67.9339 286.392 67.9645C286.44 67.9954 286.484 68.0438 286.521 68.1093C286.559 68.1747 286.586 68.2592 286.601 68.3628C286.616 68.4671 286.624 68.5956 286.624 68.7496V68.7499ZM299.696 67.4567C299.696 67.5801 299.692 67.688 299.684 67.7808C299.677 67.8729 299.664 67.9534 299.645 68.0228C299.625 68.0918 299.601 68.1533 299.571 68.2069C299.541 68.2616 299.488 68.3271 299.413 68.4032C299.337 68.4806 299.179 68.5976 298.938 68.7551C298.697 68.9134 298.397 69.0669 298.039 69.2169C297.682 69.3668 297.271 69.4942 296.807 69.5985C296.344 69.7028 295.837 69.7548 295.287 69.7548C294.337 69.7548 293.48 69.5933 292.715 69.2696C291.95 68.9455 291.298 68.4687 290.759 67.8375C290.22 67.2068 289.805 66.4277 289.516 65.4998C289.225 64.5727 289.08 63.5048 289.08 62.2965C289.08 61.0576 289.236 59.9528 289.549 58.9833C289.862 58.0133 290.301 57.1922 290.866 56.5186C291.432 55.8446 292.108 55.3317 292.896 54.9778C293.683 54.6239 294.555 54.447 295.512 54.447C295.935 54.447 296.345 54.4875 296.745 54.568C297.144 54.6489 297.513 54.7505 297.853 54.8735C298.192 54.9968 298.494 55.1396 298.758 55.3007C299.021 55.463 299.204 55.5955 299.306 55.699C299.408 55.8033 299.473 55.8823 299.504 55.9358C299.534 55.9898 299.558 56.0528 299.577 56.1266C299.596 56.1996 299.611 56.2861 299.622 56.3861C299.634 56.4864 299.639 56.6054 299.639 56.7443C299.639 56.8986 299.631 57.0287 299.616 57.1366C299.602 57.2453 299.579 57.3354 299.549 57.4084C299.519 57.4821 299.483 57.5357 299.442 57.5698C299.4 57.6043 299.349 57.6218 299.289 57.6218C299.182 57.6218 299.036 57.5464 298.848 57.3965C298.659 57.2465 298.416 57.0807 298.118 56.8998C297.821 56.7189 297.459 56.5531 297.033 56.4031C296.607 56.2532 296.096 56.1786 295.501 56.1786C294.854 56.1786 294.264 56.3111 293.733 56.5769C293.201 56.8423 292.747 57.2326 292.37 57.7483C291.993 58.2644 291.701 58.8936 291.493 59.6358C291.286 60.3788 291.183 61.2274 291.183 62.1818C291.183 63.1287 291.283 63.965 291.482 64.6921C291.682 65.4197 291.968 66.0278 292.342 66.5161C292.715 67.0053 293.172 67.375 293.716 67.6245C294.258 67.8748 294.872 67.9998 295.558 67.9998C296.138 67.9998 296.645 67.9268 297.079 67.7808C297.511 67.6344 297.881 67.4706 298.186 67.2897C298.492 67.1088 298.742 66.9454 298.938 66.7994C299.134 66.6534 299.289 66.58 299.401 66.58C299.454 66.58 299.5 66.5915 299.537 66.6145C299.574 66.6379 299.605 66.6824 299.628 66.7478C299.65 66.8129 299.668 66.9037 299.679 67.0188C299.69 67.1346 299.695 67.2806 299.695 67.4575L299.696 67.4567ZM311.442 55.486C311.442 55.632 311.435 55.7589 311.419 55.8668C311.405 55.9747 311.379 56.0612 311.346 56.1266C311.312 56.1917 311.27 56.2401 311.222 56.2706C311.173 56.3016 311.118 56.3171 311.058 56.3171H306.942V69.2696C306.942 69.3307 306.927 69.3843 306.897 69.4307C306.867 69.4771 306.814 69.5136 306.739 69.5406C306.663 69.5675 306.564 69.5902 306.439 69.61C306.315 69.6294 306.158 69.6389 305.97 69.6389C305.789 69.6389 305.635 69.6294 305.507 69.61C305.378 69.5902 305.277 69.5675 305.202 69.5406C305.126 69.514 305.073 69.4771 305.043 69.4307C305.013 69.3843 304.998 69.3307 304.998 69.2696V56.3171H300.883C300.823 56.3171 300.768 56.3016 300.719 56.2706C300.669 56.2401 300.63 56.1917 300.6 56.1266C300.57 56.0612 300.545 55.9747 300.526 55.8668C300.507 55.7589 300.497 55.632 300.497 55.486C300.497 55.3396 300.507 55.2107 300.526 55.0988C300.545 54.9873 300.57 54.8969 300.6 54.8278C300.63 54.7584 300.669 54.7084 300.719 54.6779C300.767 54.647 300.822 54.6315 300.883 54.6315H311.058C311.118 54.6315 311.172 54.647 311.222 54.6779C311.27 54.7088 311.312 54.7584 311.346 54.8278C311.379 54.8969 311.404 54.9873 311.419 55.0988C311.435 55.2107 311.442 55.3396 311.442 55.486ZM321.51 68.7499C321.51 68.8884 321.503 69.0098 321.488 69.1133C321.473 69.2177 321.446 69.3037 321.409 69.3732C321.371 69.4422 321.327 69.493 321.279 69.5231C321.229 69.5541 321.174 69.5695 321.115 69.5695H314.094C313.92 69.5695 313.757 69.5096 313.603 69.3902C313.448 69.2708 313.37 69.0614 313.37 68.7611V55.4392C313.37 55.1389 313.448 54.929 313.603 54.8096C313.757 54.6906 313.921 54.6307 314.094 54.6307H321.035C321.095 54.6307 321.15 54.6462 321.2 54.6771C321.248 54.708 321.288 54.7576 321.318 54.8271C321.349 54.8961 321.373 54.9826 321.392 55.0869C321.411 55.1908 321.419 55.3198 321.419 55.4737C321.419 55.6121 321.41 55.7331 321.392 55.8366C321.373 55.941 321.349 56.0259 321.318 56.0913C321.288 56.1568 321.249 56.2052 321.2 56.2353C321.15 56.2667 321.096 56.2817 321.035 56.2817H315.315V60.9683H320.221C320.281 60.9683 320.336 60.9858 320.385 61.0203C320.434 61.0552 320.476 61.1036 320.51 61.1651C320.543 61.2262 320.568 61.3111 320.583 61.4186C320.598 61.5269 320.606 61.6538 320.606 61.8002C320.606 61.9379 320.598 62.0573 320.583 62.1576C320.568 62.258 320.543 62.3393 320.51 62.4004C320.476 62.4611 320.434 62.5055 320.385 62.5329C320.336 62.5595 320.282 62.5734 320.221 62.5734H315.315V67.9189H321.115C321.174 67.9189 321.229 67.9339 321.279 67.9645C321.327 67.9954 321.371 68.0438 321.409 68.1093C321.446 68.1747 321.473 68.2592 321.488 68.3628C321.503 68.4671 321.51 68.5956 321.51 68.7496V68.7499Z" fill="white"/>
<path d="M0.84375 63.3672C0.84375 63.1836 0.900391 63.0293 1.01367 62.9043C1.13086 62.7754 1.29883 62.7109 1.51758 62.7109C1.73633 62.7109 1.90234 62.7754 2.01562 62.9043C2.13281 63.0293 2.19141 63.1836 2.19141 63.3672C2.19141 63.5469 2.13281 63.6992 2.01562 63.8242C1.90234 63.9492 1.73633 64.0117 1.51758 64.0117C1.29883 64.0117 1.13086 63.9492 1.01367 63.8242C0.900391 63.6992 0.84375 63.5469 0.84375 63.3672ZM5.26781 63.3672C5.26781 63.1836 5.32445 63.0293 5.43773 62.9043C5.55492 62.7754 5.72289 62.7109 5.94164 62.7109C6.16039 62.7109 6.32641 62.7754 6.43969 62.9043C6.55688 63.0293 6.61547 63.1836 6.61547 63.3672C6.61547 63.5469 6.55688 63.6992 6.43969 63.8242C6.32641 63.9492 6.16039 64.0117 5.94164 64.0117C5.72289 64.0117 5.55492 63.9492 5.43773 63.8242C5.32445 63.6992 5.26781 63.5469 5.26781 63.3672ZM9.69188 63.3672C9.69188 63.1836 9.74852 63.0293 9.8618 62.9043C9.97898 62.7754 10.147 62.7109 10.3657 62.7109C10.5845 62.7109 10.7505 62.7754 10.8638 62.9043C10.9809 63.0293 11.0395 63.1836 11.0395 63.3672C11.0395 63.5469 10.9809 63.6992 10.8638 63.8242C10.7505 63.9492 10.5845 64.0117 10.3657 64.0117C10.147 64.0117 9.97898 63.9492 9.8618 63.8242C9.74852 63.6992 9.69188 63.5469 9.69188 63.3672Z" fill="white"/>
</g>
<defs>
<clipPath id="clip0_28_570">
<rect width="345" height="75" fill="white"/>
</clipPath>
</defs>
</svg>
