<svg width="76" height="74" viewBox="0 0 76 74" fill="none" xmlns="http://www.w3.org/2000/svg">
<g clip-path="url(#clip0_34_695)">
<path fill-rule="evenodd" clip-rule="evenodd" d="M71.0931 37.1527L71.0703 41.8907C69.9049 42.113 68.2962 42.5108 67.1351 42.8547C65.3447 43.3863 66.2014 44.6338 65.2869 45.8668C65.0802 46.933 64.5841 47.9876 64.2406 48.8675C63.8585 50.1293 62.1636 52.5213 62.2612 53.399C62.366 54.3363 64.232 56.5377 64.5521 57.66L58.0324 64.2252C56.8955 63.8929 54.7123 61.9375 53.6717 61.9131C53.0687 61.8994 50.0787 63.6468 49.1285 64.0447L44.1171 65.7518C43.095 66.3216 42.6531 69.3956 42.4157 70.8322L33.0265 70.8106C31.7848 63.6065 30.9409 66.377 29.0856 64.9734C25.7976 64.3216 22.8468 61.7138 21.6066 61.862C20.995 61.9354 18.1582 63.8418 17.4091 64.2418L10.9251 57.6075C13.9493 51.4731 14.1503 55.4565 11.1232 48.6214C8.75611 43.2763 10.739 43.423 7.18019 42.5338C6.31917 42.318 5.20227 41.9303 4.35194 41.9116V32.3924C4.86157 32.3809 8.97921 31.6176 9.43395 30.75C9.49668 30.6292 10.424 27.2617 11.1232 25.6826C11.7041 24.3711 13.2665 21.5791 13.2508 21.0525C13.2316 20.3799 12.4525 19.3324 12.1596 18.8382C11.7248 18.1044 11.2707 17.3965 10.8802 16.6519L17.4526 10.1068C18.568 10.6665 21.0064 12.4319 21.7691 12.4542C22.2937 12.4701 25.0884 10.8795 26.3564 10.3068C31.6523 7.91769 31.5069 9.91906 32.3878 6.32781C32.6017 5.45805 32.9858 4.33075 33.0044 3.47251H42.4357C42.4457 3.98688 43.2033 8.14286 44.0629 8.60184C44.4457 8.80687 45.9938 9.1529 46.584 9.35217C47.8078 9.76511 50.2362 10.7183 51.3139 11.3507C54.6289 13.2981 53.4016 12.5348 58.0317 10.0615L64.5157 16.6958C61.4922 22.8302 61.2905 18.8468 64.3183 25.6819C64.6896 26.5207 64.9156 27.1516 65.2192 28.0674C66.2955 31.3248 65.3846 31.05 68.2606 31.7694C69.1216 31.9853 70.2392 32.373 71.0895 32.3917L71.0917 37.1513L71.0931 37.1527ZM29.0165 68.1395C30.1412 68.6884 29.8989 72.0717 30.8326 73.2106C31.6252 74.1753 35.8098 73.7602 37.3587 73.7602C38.5839 73.7602 43.5055 73.9573 44.2204 73.5465C45.5697 72.7717 45.2133 69.2826 46.1592 68.3719C46.445 68.0712 50.0266 66.8546 51.3317 66.264C51.9575 65.9806 53.2063 65.0864 53.8071 65.2007C54.2163 65.2792 55.7594 66.3978 56.0039 66.6237C56.8485 67.0287 57.505 67.6287 58.5527 67.7222C58.9398 67.3345 59.1628 67.3546 60.2256 66.2748L65.123 61.3325C65.8322 60.6167 68.0909 58.9225 67.8315 57.501C67.7189 56.8845 65.8379 54.1443 65.4245 53.2623C65.7452 52.0609 66.9241 50.3919 67.3839 48.8689C67.7916 48.3099 68.2634 46.7351 68.4231 45.9402C68.9983 44.7352 72.6847 45.0352 73.6284 43.9237C74.2934 43.141 73.9912 38.4944 73.9912 37.1534C73.9962 35.9333 73.9919 34.7125 73.9926 33.4924C73.9941 29.5127 74.3761 30.2378 69.4088 28.9667C67.9762 28.6005 68.5043 28.0595 67.4658 25.4365L66.0695 22.269C65.8778 21.9338 65.8343 21.9367 65.7067 21.7007C65.3796 21.0986 65.4551 21.0029 65.778 20.4569C68.845 15.2836 69.3376 17.1699 62.3411 10.1083C61.5948 9.35505 59.4544 6.86017 58.4957 6.64938C57.3816 6.40407 54.4443 9.05938 53.681 9.14642C53.2113 9.01981 52.5199 8.56011 51.9889 8.29178L47.4728 6.44435C45.7629 5.92279 46.1121 6.27242 45.6282 4.27823C44.6153 0.103549 44.9289 0.541664 41.5305 0.543822C29.7855 0.550297 31.0093 -0.648226 29.8148 4.27823C29.7093 4.71347 29.675 4.96742 29.576 5.31777C29.4156 5.88178 29.5061 5.83214 29.077 6.09688C29.0649 6.10408 24.8981 7.55367 23.4526 8.28962C21.392 9.34138 22.4034 9.65576 18.4661 7.16519C17.8432 6.77024 17.4768 6.41414 16.6799 6.7429C15.7954 7.1098 9.7212 13.5305 8.74899 14.5002C7.59146 15.6556 6.9799 16.0592 8.01056 17.7174C11.1781 22.8179 9.90509 19.3094 7.36622 27.1991C7.03265 28.2379 7.16451 28.6451 6.18018 28.93C0.143777 30.6781 1.5408 27.8588 1.44885 41.7295C1.42176 45.869 3.36405 44.1101 6.45887 45.4582C7.14099 45.7546 7.05546 46.1445 7.45746 47.3783C8.074 49.271 8.66417 50.817 9.66346 52.4889C10.2315 53.4407 9.73902 53.6767 8.7611 55.3306L7.65703 57.16C7.25646 57.9801 7.61355 58.6081 8.11106 59.1657C9.87729 61.1448 12.0206 63.1037 13.9187 65.0187C17.1589 68.2884 16.4632 68.4704 20.8439 65.6914C22.4241 64.6885 21.6443 65.3518 24.6864 66.5978C25.9145 67.1007 27.6301 67.8532 29.0165 68.1373V68.1395Z" fill="#8D99B1"/>
<path fill-rule="evenodd" clip-rule="evenodd" d="M59.4833 37.1542C59.4291 39.6527 59.1019 41.8986 58.3186 44.2129C58.0171 45.1036 57.9822 45.5158 57.4897 45.9409C57.2402 47.0208 56.5559 48.033 56.0584 48.8689C55.4761 50.2933 52.5809 53.3206 51.4996 54.168C49.7861 55.5104 47.7526 56.832 45.2522 57.7521C41.2942 59.2067 36.7667 59.5679 32.5486 58.4931C31.689 58.2751 29.5778 57.7888 29.0147 57.1061C27.9862 57.0197 25.0368 55.0068 24.2727 54.3896C22.2071 52.7227 20.495 50.7293 19.1208 48.4236C18.5235 47.42 18.3047 47.0222 17.8229 45.8899C17.0951 44.1813 16.3738 41.954 16.1685 39.8714C15.4665 32.7507 17.3289 27.7897 21.2434 22.9021C24.0845 19.3547 28.4794 16.8311 32.8686 15.7829C39.0055 14.3175 46.0227 16.0397 50.5488 19.4483C52.7206 21.0842 54.6415 23.0446 56.0506 25.4265C58.1176 28.9199 59.4875 32.8709 59.4833 37.1542ZM29.0161 60.4743C35.8373 62.521 41.3555 62.8131 47.8581 59.8355C52.0876 57.8981 53.201 56.5406 55.9487 53.9026L58.4783 50.602C59.057 49.671 59.1162 49.1977 59.665 48.8675C59.891 47.8948 60.5617 47.0085 60.8247 45.9402C61.7299 42.8036 62.3229 40.8318 62.3814 37.1542C62.4077 34.1672 62.0179 31.8997 61.2745 29.6724C59.7349 25.056 58.0285 22.4496 54.7241 19.0778C54.2409 18.5835 54.0641 18.4936 53.5538 18.0613C53.0819 17.6598 52.8774 17.4562 52.3606 17.0692C43.481 10.4227 31.2785 10.9162 23.0802 17.0692C20.0659 19.331 16.7772 23.0395 15.3082 26.6149C12.1001 34.4276 12.1108 41.9713 16.1949 49.3617C17.1101 51.0178 17.7274 51.7861 18.8578 53.2637C20.7452 55.7313 25.9726 59.7002 29.0147 60.4743H29.0161Z" fill="#8D99B1"/>
<path fill-rule="evenodd" clip-rule="evenodd" d="M40.9754 37.1524C40.4872 38.4574 39.5385 39.9595 37.8827 40.0451C36.0645 40.1394 34.9618 38.8553 34.8221 37.1524C35.135 35.7741 35.3731 35.2057 36.4572 34.595C37.4707 34.0238 43.9868 30.2037 44.7958 30.0131C44.6176 30.7836 44.2292 31.2735 43.8978 31.8533C43.5556 32.4526 43.2456 32.9655 42.9206 33.6137C42.3019 34.8468 41.6304 35.9798 40.9761 37.1531L40.9754 37.1524ZM31.9376 37.3352C32.1257 40.6494 34.7352 43.2558 38.2434 42.9674C40.0602 42.8177 41.2227 41.9192 42.1422 40.8861C42.8642 40.0754 43.7759 37.7848 44.4309 37.1999C44.8856 36.1992 45.5236 35.1431 46.0553 34.2158C46.639 33.1964 47.1166 32.172 47.731 31.1476C48.349 30.1124 48.8066 29.1656 49.4331 28.1067C49.6505 27.7383 50.1373 26.8873 50.2734 26.57C50.9948 24.8823 49.2784 23.8011 47.5899 22.6176C46.6041 21.9277 45.6804 21.4529 44.5549 20.9206C42.3846 19.8933 39.6696 19.4847 36.4465 19.5746C33.78 19.6494 31.2013 20.7522 29.316 21.7141C27.3295 22.7263 25.5526 24.4054 24.1734 26.0413C19.5946 31.4706 18.745 40.5912 23.3951 47.2205C23.7115 47.6708 25.1827 49.5966 25.564 49.793C26.9553 50.5117 28.4051 49.3693 27.8192 47.8967C27.7151 47.637 19.9431 40.4732 24.7835 30.6836C25.239 29.7627 25.9881 28.4793 26.6132 27.7722C30.7658 23.0752 37.4315 21.0393 43.525 23.7917C44.319 24.15 45.974 24.9981 46.4274 25.6219C45.8158 25.7657 34.8321 31.8512 33.8677 32.7137C32.743 33.7187 31.8499 35.1885 31.9383 37.3373L31.9376 37.3352Z" fill="#8D99B1"/>
</g>
<defs>
<clipPath id="clip0_34_695">
<rect width="75.0323" height="73.5801" fill="white" transform="translate(0 0.419922)"/>
</clipPath>
</defs>
</svg>
