<svg width="53" height="70" viewBox="0 0 53 70" fill="none" xmlns="http://www.w3.org/2000/svg">
<path d="M49.6765 65.1687C49.6765 65.9329 49.0589 66.5532 48.2973 66.5532H4.1399C3.37822 66.5532 2.76069 65.9329 2.76069 65.1687V4.2531C2.76069 3.48893 3.37822 2.8686 4.1399 2.8686H48.2973C49.0589 2.8686 49.6765 3.48893 49.6765 4.2531V65.1687ZM48.2973 0.0996094H4.1399C1.85412 0.0996094 0 1.95981 0 4.2531V65.1687C0 67.462 1.85412 69.3222 4.1399 69.3222H48.2973C50.583 69.3222 52.4364 67.462 52.4364 65.1687V4.2531C52.4364 1.95981 50.583 0.0996094 48.2973 0.0996094V0.0996094Z" fill="#8D99B1"/>
<path d="M26.2189 9.79102C30.0296 9.79102 33.1188 12.8896 33.1188 16.7127C33.1188 20.5351 30.0296 23.6345 26.2189 23.6345C22.4091 23.6345 19.3199 20.5351 19.3199 16.7127C19.3252 12.8919 22.4106 9.79482 26.2189 9.79102ZM30.3588 32.4704L26.8365 30.7031C26.4473 30.5082 25.9906 30.5082 25.6022 30.7031L22.0798 32.4704V25.4559C24.6956 26.7209 27.7431 26.7209 30.3588 25.4559V32.4704ZM19.3199 34.7105C19.3199 35.4746 19.9374 36.0949 20.6991 36.0957C20.9138 36.0957 21.1247 36.0455 21.3166 35.9496L26.2189 33.4896L31.122 35.9564C31.8033 36.2982 32.6325 36.0204 32.9731 35.3369C33.0702 35.1428 33.1195 34.9274 33.1188 34.7105V23.4815C36.852 19.6583 36.7891 13.5228 32.9792 9.77655C29.1685 6.03103 23.0531 6.09344 19.3191 9.9166C15.6397 13.6842 15.6397 19.7131 19.3191 23.4815V34.7105H19.3199Z" fill="#8D99B1"/>
<path d="M34.4979 58.2461H9.65999C8.89832 58.2461 8.28003 58.8657 8.28003 59.6306C8.28003 60.3948 8.89832 61.0143 9.65999 61.0143H34.4979C35.2595 61.0143 35.8778 60.3948 35.8778 59.6306C35.8778 58.8657 35.2595 58.2461 34.4979 58.2461Z" fill="#8D99B1"/>
<path d="M42.7776 49.9395H9.65999C8.89832 49.9395 8.28003 50.559 8.28003 51.3239C8.28003 52.0881 8.89832 52.7077 9.65999 52.7077H42.7776C43.5393 52.7077 44.1576 52.0881 44.1576 51.3239C44.1576 50.559 43.5393 49.9395 42.7776 49.9395Z" fill="#8D99B1"/>
<path d="M42.7776 41.6328H9.65999C8.89832 41.6328 8.28003 42.2531 8.28003 43.0173C8.28003 43.7815 8.89832 44.401 9.65999 44.401H42.7776C43.5393 44.401 44.1576 43.7815 44.1576 43.0173C44.1576 42.2531 43.5393 41.6328 42.7776 41.6328Z" fill="#8D99B1"/>
<path d="M31.6452 16.995C31.6452 19.9078 29.2839 22.2692 26.371 22.2692C23.4581 22.2692 21.0968 19.9078 21.0968 16.995C21.0968 13.4789 23.4581 11.1348 26.371 11.1348C30.0565 11.1348 31.6452 14.0821 31.6452 16.995Z" fill="#8D99B1"/>
</svg>
