<svg width="67" height="74" viewBox="0 0 67 74" fill="none" xmlns="http://www.w3.org/2000/svg">
<path d="M63.7451 56.6516C63.7451 57.4386 63.1094 58.0743 62.3224 58.0743H52.3742V16.8789C52.3742 14.5281 50.4673 12.6212 48.1165 12.6212H18.2819V5.51817C18.2819 4.73119 18.9175 4.09556 19.7045 4.09556H62.3224C63.1094 4.09556 63.7451 4.73119 63.7451 5.51817V56.6617V56.6516ZM49.5391 68.0124C49.5391 68.7994 48.9034 69.435 48.1165 69.435H5.49851C4.71153 69.435 4.0759 68.7994 4.0759 68.0124V16.8688C4.0759 16.0819 4.71153 15.4462 5.49851 15.4462H48.1165C48.9034 15.4462 49.5391 16.0819 49.5391 16.8688V68.0124ZM62.3224 1.24023H19.7045C17.3536 1.24023 15.4467 3.14715 15.4467 5.49799V12.601H5.49851C3.14766 12.601 1.24075 14.5079 1.24075 16.8587V68.0023C1.24075 70.3532 3.14766 72.2601 5.49851 72.2601H48.1165C50.4673 72.2601 52.3742 70.3532 52.3742 68.0023V60.8993H62.3224C64.6733 60.8993 66.5802 58.9924 66.5802 56.6416V5.49799C66.5802 3.14715 64.6733 1.24023 62.3224 1.24023Z" fill="#8D99B1"/>
<path d="M45.2807 62.332H8.34318C7.5562 62.332 6.92056 62.9677 6.92056 63.7547C6.92056 64.5416 7.5562 65.1773 8.34318 65.1773H45.2807C46.0677 65.1773 46.7034 64.5416 46.7034 63.7547C46.7034 62.9677 46.0677 62.332 45.2807 62.332Z" fill="#8D99B1"/>
<path d="M35.7466 34.9295C36.3015 35.4845 37.1994 35.4845 37.7544 34.9295C37.8351 34.8488 37.8956 34.7681 37.9561 34.6773L45.0591 23.3166C45.4728 22.6506 45.271 21.7729 44.6051 21.3592C43.9392 20.9455 43.0614 21.1473 42.6478 21.8132L36.4932 31.6606L33.4966 28.664C32.9417 28.1091 32.0336 28.1191 31.4888 28.6842C30.944 29.2391 30.944 30.127 31.4888 30.6718L35.7466 34.9295Z" fill="#8D99B1"/>
<path d="M32.4985 55.2392V43.8784H43.8592V55.2392H32.4884H32.4985ZM43.8592 41.0332H32.4985C30.9346 41.0332 29.6633 42.3045 29.6532 43.8784V55.2392C29.6532 56.8031 30.9245 58.0743 32.4985 58.0844H43.8592C45.4231 58.0844 46.6944 56.8131 46.7044 55.2392V43.8784C46.7044 42.3146 45.4332 41.0433 43.8592 41.0332Z" fill="#8D99B1"/>
<path d="M8.34318 25.4038H25.3944C26.1814 25.4038 26.817 24.7682 26.817 23.9812C26.817 23.1942 26.1814 22.5586 25.3944 22.5586H8.34318C7.5562 22.5586 6.92056 23.1942 6.92056 23.9812C6.92056 24.7682 7.5562 25.4038 8.34318 25.4038Z" fill="#8D99B1"/>
<path d="M8.34318 32.5093H25.3944C26.1814 32.5093 26.817 31.8737 26.817 31.0867C26.817 30.2997 26.1814 29.6641 25.3944 29.6641H8.34318C7.5562 29.6641 6.92056 30.2997 6.92056 31.0867C6.92056 31.8737 7.5562 32.5093 8.34318 32.5093Z" fill="#8D99B1"/>
<path d="M8.34318 46.7144H25.3944C26.1814 46.7144 26.817 46.0787 26.817 45.2918C26.817 44.5048 26.1814 43.8691 25.3944 43.8691H8.34318C7.5562 43.8691 6.92056 44.5048 6.92056 45.2918C6.92056 46.0787 7.5562 46.7144 8.34318 46.7144Z" fill="#8D99B1"/>
<path d="M8.34318 55.2398H25.3944C26.1814 55.2398 26.817 54.6041 26.817 53.8171C26.817 53.0302 26.1814 52.3945 25.3944 52.3945H8.34318C7.5562 52.3945 6.92056 53.0302 6.92056 53.8171C6.92056 54.6041 7.5562 55.2398 8.34318 55.2398Z" fill="#8D99B1"/>
</svg>
