<svg width="62" height="76" viewBox="0 0 62 76" fill="none" xmlns="http://www.w3.org/2000/svg">
<g clip-path="url(#clip0_35_845)">
<path fill-rule="evenodd" clip-rule="evenodd" d="M50.6207 38.5439C49.4289 39.1368 49.4351 40.5776 50.54 41.0812C51.0676 41.3171 53.8732 41.3235 54.4008 41.0812C55.425 40.6159 55.4312 39.0093 54.4008 38.5439C53.8297 38.2889 51.1048 38.3017 50.6145 38.5439H50.6207Z" fill="#8D99B1"/>
<path fill-rule="evenodd" clip-rule="evenodd" d="M40.0498 72.0716C39.8512 72.2947 40.056 72.2119 39.6463 72.3585C39.1497 72.5306 30.1619 72.4286 29.5287 72.4286C26.3011 72.4286 25.7238 73.506 24.352 66.7037C25.5562 66.9587 26.6735 67.405 27.9708 67.66C32.9737 68.6545 35.4317 68.0425 40.056 67.2838C40.745 67.1308 41.3098 66.9141 41.9554 66.7611C41.7009 67.3093 41.3781 68.7438 41.1671 69.496C40.8815 70.5288 40.7884 71.5743 40.056 72.078L40.0498 72.0716ZM2.77615 41.05C2.77615 37.4735 2.49063 36.9762 5.53831 36.9762V42.6502C4.62587 42.6502 2.77615 42.8542 2.77615 41.0564V41.05ZM57.8579 36.9762C58.1745 41.305 57.8145 43.1602 56.9827 47.0809L56.7965 47.2594C56.6538 49.0126 54.3633 53.1182 53.5192 54.3486C53.1902 54.8204 52.8302 55.3113 52.4888 55.7703C52.0791 56.3249 51.6881 56.6309 51.2784 57.1856C50.8253 57.7976 50.6018 58.0016 49.9687 58.4989C49.4225 58.9324 49.2115 59.4743 48.5163 59.6655C48.0383 60.6282 44.3637 62.7256 42.8181 63.2866C41.9926 63.6436 40.925 64.0963 39.9567 64.2748C38.7277 65.129 32.7751 65.7729 31.4033 65.1609C30.1308 65.1609 29.3239 64.8549 28.3246 64.8294C26.3693 64.568 24.2403 63.6755 22.5892 62.9041C21.3354 62.3112 18.3808 60.7174 17.9649 59.844C17.2759 59.4679 17.4435 59.5061 16.8787 59.0152C12.2916 55.018 9.61637 49.6119 8.59841 43.4152C7.28251 35.4207 10.5971 26.6995 16.0283 21.3316C16.438 20.9235 16.6428 20.8343 17.0649 20.4454C19.4981 18.2205 22.8189 16.3462 25.9845 15.4218C28.6535 14.644 31.8564 14.0447 34.5875 14.4145C36.5738 14.6886 36.76 14.3699 39.6587 15.2305C44.5189 16.6713 46.2258 18.0483 49.826 20.9172C53.0102 23.4609 56.1324 29.2559 57.1814 33.5655L57.8641 36.9699L57.8579 36.9762ZM24.352 12.8717C25.3948 10.6404 25.0658 7.19778 27.1142 7.19778H39.1932C41.2353 7.19778 40.9126 10.634 41.9554 12.8717C37.0518 11.6987 38.1442 11.4564 31.9495 11.4564C28.697 11.4564 26.9218 12.2597 24.3582 12.8717H24.352ZM17.9649 63.5034C21.7699 65.4478 21.0188 65.2247 21.8257 68.0999C22.4402 70.2929 22.912 73.1554 24.2837 74.2647C26.0341 75.6927 29.0136 75.2528 31.6019 75.2528C34.2772 75.2528 37.4428 75.4122 40.056 75.2018C41.3036 75.0934 42.1416 74.2838 42.8181 73.4869C43.5258 71.5042 44.072 69.5789 44.6741 67.4114C45.0465 66.0789 44.8603 65.486 45.9962 64.8677C46.8838 64.3768 47.7342 63.7647 48.5163 63.3886C49.8818 62.4068 51.266 61.3613 52.4454 60.1437C56.1137 56.344 59.0932 51.3778 60.1608 46.0099L60.6015 42.8159C61.0112 41.9106 60.8311 39.7813 60.7318 38.5637L60.4898 35.5482C59.4966 31.2386 59.3414 29.3643 56.7282 24.9909C54.8972 21.9181 52.6626 19.368 49.9253 17.2706L46.8031 15.1604C44.9968 14.0957 45.4375 14.8097 44.6244 11.9027C43.6996 8.59394 43.4761 5.77611 40.987 4.64771C39.7084 4.06756 29.1749 4.33532 26.9404 4.34807C25.6245 4.35445 25.1403 4.67321 24.3769 5.25972C23.6506 5.81436 23.2161 6.44551 22.912 7.47829C22.3409 9.42272 21.8444 11.1504 21.3292 13.1203C20.8016 15.1413 20.7892 14.1021 17.3877 16.5119C13.3593 19.3744 9.66603 23.837 7.81632 28.4845C7.2763 29.8424 6.19626 32.5136 6.06591 34.1329C3.521 34.1329 1.25541 34.0118 0.212622 36.9826C-0.0791121 37.805 -0.0480766 41.7895 0.169172 42.4971C1.10644 45.5572 3.53342 45.4744 6.07212 45.4744C6.20247 47.0873 7.28251 49.7585 7.82252 51.1228C9.08256 54.2912 12.2047 58.9005 14.7993 60.9724C15.96 61.8968 16.1711 62.3367 17.9773 63.497L17.9649 63.5034Z" fill="#8D99B1"/>
<path fill-rule="evenodd" clip-rule="evenodd" d="M31.7704 31.3087C31.7704 32.6793 31.5966 39.6474 31.9132 40.3806C32.4097 41.5472 34.2284 41.2348 35.5629 41.2348C37.0588 41.2348 38.5548 41.2348 40.0507 41.2348C41.9438 41.0818 41.9438 38.5573 40.0507 38.4042H34.5264V31.315C34.5326 28.459 35.054 25.6348 33.1484 25.6348C31.249 25.6348 31.758 28.4653 31.7704 31.315V31.3087Z" fill="#8D99B1"/>
<path fill-rule="evenodd" clip-rule="evenodd" d="M16.9226 24.5696C16.9226 25.6151 19.6165 28.1142 20.2 28.1142C20.9696 28.1142 21.7517 27.3938 21.7517 26.6989C21.7517 25.7554 20.8517 25.1561 20.3303 24.6142C19.8089 24.0787 19.2192 23.1543 18.3006 23.1543C17.4626 23.1543 16.9226 23.7153 16.9226 24.5696Z" fill="#8D99B1"/>
<path fill-rule="evenodd" clip-rule="evenodd" d="M44.5385 26.5204C44.5385 27.3109 45.2399 28.1142 45.9227 28.1142C46.8413 28.1142 47.431 27.1898 47.9524 26.6543C48.6662 25.9211 49.3738 25.5641 49.3738 24.3975C49.3738 23.9831 48.809 23.1543 47.9959 23.1543C46.9779 23.1543 44.5447 25.9211 44.5447 26.5204H44.5385Z" fill="#8D99B1"/>
<path fill-rule="evenodd" clip-rule="evenodd" d="M11.0571 39.8116C11.0571 41.6667 13.1241 41.2268 15.1973 41.2268C17.047 41.2268 17.047 38.3899 15.1973 38.3899C13.1241 38.3899 11.0571 37.9564 11.0571 39.8052V39.8116Z" fill="#8D99B1"/>
<path fill-rule="evenodd" clip-rule="evenodd" d="M31.7638 18.544C31.7638 20.6733 31.3418 22.7962 33.1418 22.7962C34.9481 22.7962 34.5198 20.6733 34.5198 18.544C34.5198 16.6442 31.7576 16.6442 31.7576 18.544H31.7638Z" fill="#8D99B1"/>
<path fill-rule="evenodd" clip-rule="evenodd" d="M32.1117 57.2104C31.7269 57.8989 31.7517 57.8798 31.7579 58.9508C31.7579 59.5756 31.702 60.6849 31.7765 61.2523C31.851 61.8451 32.1241 62.2787 32.7014 62.4444C33.5331 62.6867 33.9304 62.2595 34.3525 61.9663C34.6318 61.0929 34.6628 59.1166 34.4952 58.0902C34.2718 56.7386 33.1235 56.7705 32.1117 57.204V57.2104Z" fill="#8D99B1"/>
<path fill-rule="evenodd" clip-rule="evenodd" d="M17.9595 53.3217C17.5747 53.8317 16.985 54.1377 16.9229 54.9027C16.8733 55.5211 17.0843 55.8718 17.5436 56.1905C17.9161 56.4455 17.7361 56.3116 17.9595 56.3882C19.232 56.4455 19.4244 55.8781 20.0389 55.247C20.4175 54.8517 21.5224 53.9465 21.6279 53.2707C21.8017 52.1742 20.9638 51.3773 19.8899 51.6769C19.3189 51.8363 18.574 52.9456 17.9595 53.3281V53.3217Z" fill="#8D99B1"/>
<path fill-rule="evenodd" clip-rule="evenodd" d="M44.6932 53.4605C44.7988 53.8302 46.5368 55.5579 46.8471 55.8703C47.9892 56.9987 49.6093 56.087 49.212 54.557C49.0879 54.0852 47.4244 52.4659 47.0644 52.1089C45.8974 50.9614 44.2712 51.9304 44.6995 53.4605H44.6932Z" fill="#8D99B1"/>
</g>
<defs>
<clipPath id="clip0_35_845">
<rect width="62" height="75.8966" fill="white"/>
</clipPath>
</defs>
</svg>
