<svg width="66" height="72" viewBox="0 0 66 72" fill="none" xmlns="http://www.w3.org/2000/svg">
<path fill-rule="evenodd" clip-rule="evenodd" d="M32.7203 23.4915C32.7203 21.1763 32.8107 19.774 34.0895 17.7293C34.6145 16.8899 36.101 15.0768 37.0551 14.822C37.0551 19.541 36.0969 23.9025 39.1914 26.5289C42.2606 29.1338 46.5864 27.4666 47.775 23.864C48.4419 21.8424 48.1017 17.4335 48.1017 14.822C49.8154 15.2796 52.4365 19.1511 52.4365 22.0932C52.4365 25.399 52.0296 26.6223 49.9412 29.2463C48.1644 31.4788 45.3051 31.3904 45.3051 33V43.9068H39.8517V33C39.8517 31.5919 38.1574 31.7288 36.3979 30.3012C35.9788 29.9613 35.6131 29.7286 35.2772 29.3245C34.1869 28.013 32.7203 25.8032 32.7203 23.4915L32.7203 23.4915ZM26.2881 10.767C26.2881 10.396 29.5527 7.13138 29.9237 7.13138C31.132 7.13138 31.1327 9.90939 33.7586 8.30944C38.1112 5.65739 39.9173 7.37389 39.8526 4.19587C39.816 2.39485 39.1807 2.79661 44.8856 2.79661C45.7974 2.79661 44.9744 4.52585 45.456 5.58218C45.8918 6.53813 47.9611 6.5607 50.1997 7.69013C50.5636 7.87375 50.9611 8.05066 51.3114 8.25637C52.5037 8.95655 53.0047 9.17289 54.1514 8.00737C55.4677 6.66943 55.0863 6.77487 57.1557 8.84429C57.5048 9.19335 58.8687 10.3172 58.8687 10.767C58.8687 11.7666 56.1294 12.1027 57.6362 14.5163C59.0745 16.8202 59.5455 19.8035 60.0844 20.3182C60.6633 20.871 62.006 20.6949 63.0636 20.6949C63.3125 21.7634 63.3125 25.0798 63.0636 26.1483C57.828 26.1483 61.0386 26.6889 57.6687 32.2196C56.3332 34.4116 58.0724 34.7474 58.8687 35.9365C58.7366 36.4309 55.5888 39.5795 55.0932 39.7119C54.104 39.0494 53.4581 37.3729 51.9049 38.1949C50.9256 38.7131 49.3873 39.7564 48.2415 39.8517V33.9788C52.5739 31.6864 55.3729 27.8423 55.3729 22.5127C55.3729 19.0999 53.7354 15.9187 51.5833 13.8574L50.8652 13.1772C50.4841 12.8182 50.0251 12.5575 49.5585 12.2466C49.0309 11.895 48.6211 11.6752 47.8629 11.5617C43.6665 10.9336 45.6246 18.4498 45.1524 22.4999C44.7945 25.57 40.5184 25.6696 40.0214 22.6227C39.7607 21.0244 40.2363 15.0085 39.8894 13.5258C39.3724 11.3163 37.4118 11.0891 35.7664 12.135C27.5473 17.3598 27.6314 29.0664 36.9152 33.9788V39.8517C36.3143 39.8017 35.4669 39.3764 34.9584 39.1518C34.3593 38.8872 33.8583 38.5156 33.2505 38.1963C31.4555 37.2532 31.138 39.3876 29.9237 39.7119C29.534 39.4509 26.435 36.4866 26.2881 35.9365C26.9179 34.996 27.9661 34.8282 27.9661 33.4195C27.9661 32.8703 26.5161 30.6642 25.9567 28.8569C25.0846 26.0393 25.6701 26.1483 22.0932 26.1483C21.8443 25.0798 21.8443 21.7634 22.0932 20.6949C26.7754 20.6949 24.484 20.4955 26.8938 15.7074C27.5395 14.4243 27.9661 14.0966 27.9661 13.1441C27.9661 12.0456 26.2881 11.4613 26.2881 10.767L26.2881 10.767ZM36.9153 3.91525C35.8201 4.00638 33.5828 5.13681 32.7203 5.59322C31.6422 4.87126 31.8075 4.19491 29.7839 4.19491C28.1896 4.19491 26.8574 5.93287 25.9735 6.81673C24.4211 8.36916 22.4114 9.82329 23.8118 12.4042C24.1387 13.0066 24.4145 13.0626 24.75 13.5636C24.2293 14.5476 23.1586 16.7179 23.0721 17.7585C20.9288 17.7585 19.1568 18.6209 19.1568 20.9746V26.0085C19.1568 26.9437 19.7545 27.9016 20.3284 28.3327C21.0241 28.8553 21.9212 29.0847 23.0721 29.0847C23.1536 30.0649 24.3307 32.4872 24.75 33.2797C24.4778 33.6862 21.9296 35.8868 24.2932 38.211L27.6508 41.5653C30.0694 44.0214 31.9699 41.7525 32.7203 41.25C33.8551 41.8504 35.5337 42.6061 36.9152 42.928C36.9152 45.1131 38.0166 46.8433 39.9915 46.8433H45.1653C46.0539 46.8433 47.0816 46.2062 47.491 45.6732C48.0321 44.9687 48.2415 44.113 48.2415 42.928C49.656 42.5984 51.2788 41.8626 52.4365 41.25C53.3719 41.8764 54.7934 43.8536 57.4725 41.6717C57.7324 41.46 57.6748 41.5004 57.9068 41.267L58.118 41.0587C58.2424 40.9427 58.2138 40.9784 58.341 40.8622C58.6653 40.5659 58.8762 40.2989 59.146 39.9892L59.859 39.3039C61.2301 38.0436 62.5778 36.4782 61.3627 34.4212C61.0829 33.9474 60.6947 33.7096 60.4068 33.2797C60.8261 32.4872 62.0032 30.0649 62.0847 29.0847C64.2451 29.0847 66 27.9924 66 26.0085V20.8348C66 19.8483 65.4206 18.9601 64.8456 18.4934C64.148 17.9271 63.3071 17.7585 62.0847 17.7585C62.0323 17.1282 61.5904 16.1361 61.3668 15.54C61.1471 14.9544 60.7107 14.1379 60.4068 13.5636C60.716 13.1017 60.9921 13.0179 61.2958 12.495C62.8156 9.87889 60.6865 8.31995 59.1833 6.81673C57.8089 5.44237 57.0604 4.19491 54.9534 4.19491C53.5307 4.19491 53.2194 5.06894 52.4365 5.59322C51.5739 5.13681 49.3367 4.00638 48.2415 3.91525C48.2415 2.80565 48.0518 1.87713 47.569 1.23181C47.1483 0.669583 46.2564 0 45.3051 0H39.8517C38.9253 0 38.0868 0.61905 37.6497 1.1539C37.129 1.79097 36.9153 2.79947 36.9153 3.91525Z" fill="#8D99B1"/>
<path fill-rule="evenodd" clip-rule="evenodd" d="M2.79661 64.6018V50.6188C2.79661 50.052 2.9473 49.3603 3.49579 49.3603H9.50848C9.9605 49.3603 10.2077 49.8679 10.2077 50.3391V64.7417C10.2077 65.3944 9.88159 65.7205 9.22882 65.7205H3.6356C3.18252 65.7205 2.79662 65.1128 2.79662 64.6018L2.79661 64.6018ZM0 49.9196V65.1611C0 67.1191 1.88981 68.6569 4.47458 68.6569C7.38853 68.6569 12.0831 69.3538 12.8644 66.0001C17.1498 66.0001 15.5245 65.9251 19.4939 66.9214C21.5782 67.4446 23.484 68.0342 25.5612 68.5449C28.1924 69.1917 35.8381 71.5933 37.8941 71.5933C41.0463 71.5933 42.6763 70.7472 45.0269 69.0779L46.9032 67.738C47.4431 67.3539 48.3008 66.9095 47.9487 65.745C47.8042 65.2672 47.2662 64.7417 46.7034 64.7417C45.9457 64.7417 45.2001 65.4294 44.6865 65.801C39.4571 69.5848 38.9048 69.2282 32.8602 67.5382C31.3512 67.1164 17.232 63.2035 16.2203 63.2035H13.0043V51.8772C19.3502 51.8772 17.3896 49.9196 24.3305 49.9196C26.5362 49.9196 28.8126 51.3256 30.3248 52.455C30.7583 52.7787 30.9144 52.9843 31.3015 53.2961C31.9314 53.8032 32.5642 54.5463 33.3019 54.7914C35.1493 55.4053 41.9658 54.5404 43.3921 55.1885C45.2587 56.0367 45.422 59.3642 42.2121 59.691L32.4407 59.7077C30.1851 59.7077 28.6653 59.2994 28.6653 61.2459C28.6653 61.9998 29.3568 62.5044 30.0636 62.5044H42.6483C44.8958 62.5044 46.7708 60.7369 47.3782 58.8443C47.6192 58.0932 47.5424 57.0268 47.5424 56.0722C48.2191 55.9145 49.8391 54.9937 50.572 54.6272C51.645 54.0907 52.4535 53.6148 53.5085 53.089C54.5892 52.5504 58.855 50.1993 59.7077 50.1993C61.8698 50.1993 62.9087 52.6877 60.7696 54.3375L55.8914 57.8491C55.0784 58.5842 55.3357 59.6262 55.9829 60.0785C56.4059 60.3741 56.851 60.4408 57.3162 60.2659C57.7413 60.106 57.943 59.8667 58.3372 59.5958C59.7099 58.6521 62.407 56.8071 63.4515 55.7609C66.6077 52.6001 63.8504 47.4027 60.4068 47.4027C57.6927 47.4027 58.2217 47.5197 55.7474 48.756L46.0043 53.695C44.7829 51.8711 42.1169 52.1569 40.4111 52.1569L35.0924 52.1619C33.936 52.115 33.2601 51.1006 31.9022 50.0386C23.973 43.8369 16.9058 48.9408 14.9619 48.9408C11.3479 48.9408 13.6719 48.9536 11.7072 47.3014C11.1131 46.8017 10.4114 46.4238 9.36868 46.4238H3.4958C1.72988 46.4238 1.288e-05 48.1537 1.288e-05 49.9196L0 49.9196Z" fill="#8D99B1"/>
<path fill-rule="evenodd" clip-rule="evenodd" d="M50.339 62.3635C50.339 64.768 53.1356 64.3294 53.1356 62.5034C53.1356 60.7602 50.339 60.6431 50.339 62.3635Z" fill="#8D99B1"/>
</svg>
