<svg width="72" height="73" viewBox="0 0 72 73" fill="none" xmlns="http://www.w3.org/2000/svg">
<path fill-rule="evenodd" clip-rule="evenodd" d="M55.5848 67.5922C55.5848 66.4044 56.365 65.7547 57.5755 65.7547H66.9161C69.134 65.7547 69.0527 68.9704 67.0693 68.9704H57.4223C56.9182 68.9704 56.5274 68.8705 56.2313 68.63C56.0749 68.503 55.5848 67.7587 55.5848 67.5922ZM55.5848 60.8547C55.5848 60.2949 56.1085 59.3234 57.116 59.3234H67.2224C69.0377 59.3234 69.0377 62.3859 67.2224 62.3859H57.116C56.1085 62.3859 55.5848 61.4144 55.5848 60.8547ZM55.5848 54.2703C55.5848 53.9703 55.9556 53.3376 56.1505 53.1515C56.464 52.8523 56.8591 52.739 57.4223 52.739H67.0693C69.1284 52.739 69.0899 55.9546 66.9161 55.9546H57.5755C56.4013 55.9546 55.5848 55.2486 55.5848 54.2703ZM55.5848 47.9921C55.5848 46.8043 56.365 46.1545 57.5755 46.1545H66.9161C69.134 46.1545 69.0527 49.3702 67.0693 49.3702H57.4223C56.9182 49.3702 56.5274 49.2703 56.2313 49.0299C56.0749 48.9028 55.5848 48.1586 55.5848 47.9921ZM55.5848 41.2545C55.5848 40.6947 56.1085 39.7232 57.116 39.7232H67.2224C69.0377 39.7232 69.0377 42.7858 67.2224 42.7858H57.116C56.1085 42.7858 55.5848 41.8143 55.5848 41.2545ZM55.5848 34.6701C55.5848 34.0746 56.1682 33.1388 57.4223 33.1388H67.0693C69.1284 33.1388 69.0899 36.3545 66.9161 36.3545H57.5755C56.4013 36.3545 55.5848 35.6485 55.5848 34.6701ZM55.5848 28.3919C55.5848 27.2041 56.365 26.5544 57.5755 26.5544H66.9161C69.134 26.5544 69.0527 29.7701 67.0693 29.7701H57.4223C56.9182 29.7701 56.5274 29.6701 56.2313 29.4297C56.0749 29.3027 55.5848 28.5584 55.5848 28.3919ZM53.441 31.4544C52.4681 33.293 52.3692 32.8913 52.3692 35.2826C52.3692 36.3754 53.0009 37.2284 53.441 37.8857C52.9959 39.553 52.3692 38.4361 52.3692 41.867C52.3692 43.1145 53.2074 43.7481 53.441 44.6232C52.3992 46.179 52.3692 46.3425 52.3692 48.1452C52.3692 49.5273 52.9682 50.161 53.441 51.0545C52.4681 52.8932 52.3692 52.4914 52.3692 54.8827C52.3692 55.9755 53.0009 56.8285 53.441 57.4858C52.9959 59.1531 52.3692 58.0362 52.3692 61.4671C52.3692 62.7146 53.2074 63.3483 53.441 64.2234C52.8155 65.1575 52.5777 65.2591 52.3384 66.6498C51.8786 69.3217 54.0372 72.3391 57.1161 72.3391H67.0693C70.2348 72.3391 72.9591 69.0368 71.6266 65.638C71.3618 64.9626 71.059 64.6649 70.7443 64.0703C71.7688 62.5402 72.4192 61.1691 71.6051 59.0751C71.3215 58.3458 71.0964 58.1647 70.7443 57.639C72.0983 55.0799 72.711 53.9915 70.7443 51.0545C72.711 48.1175 72.0983 47.0291 70.7443 44.4701C71.0816 43.9663 71.2714 43.8301 71.5602 43.1422C72.0688 41.9305 72.0847 40.7086 71.6051 39.4749C71.3215 38.7457 71.0964 38.5645 70.7443 38.0388C72.0983 35.4797 72.711 34.3913 70.7443 31.4544C71.4291 30.4316 71.9693 29.7137 71.9693 28.0856C71.9693 25.2197 69.5173 23.1855 66.6099 23.1855H57.8817C53.8588 23.1855 51.8956 26.1823 52.3148 28.7419C52.5559 30.2142 52.8949 30.4223 53.441 31.4544V31.4544Z" fill="#8D99B1"/>
<path fill-rule="evenodd" clip-rule="evenodd" d="M29.5534 67.5913C29.5534 66.4423 30.0443 65.7538 31.3909 65.7538H40.5785C43.1032 65.7538 42.9057 68.9695 40.8847 68.9695H31.0846C30.3106 68.9695 29.5534 68.417 29.5534 67.5913ZM29.5534 61.0069C29.5534 60.0704 29.9517 59.3225 30.9315 59.3225H41.0379C42.8876 59.3225 42.8876 62.385 41.0379 62.385H30.9315C30.1747 62.385 29.5534 61.7637 29.5534 61.0069ZM29.5534 54.4224C29.5534 53.3889 30.067 52.7381 31.0846 52.7381H40.8847C42.9436 52.7381 43.0526 55.9537 40.5785 55.9537H31.3909C30.3707 55.9537 29.5534 55.4266 29.5534 54.4224ZM29.5534 47.9911C29.5534 46.8421 30.0443 46.1536 31.3909 46.1536H40.5785C43.1032 46.1536 42.9057 49.3693 40.8847 49.3693H31.0846C30.3106 49.3693 29.5534 48.8168 29.5534 47.9911ZM29.5534 41.4067C29.5534 40.4703 29.9517 39.7223 30.9315 39.7223H41.0379C42.8876 39.7223 42.8876 42.7848 41.0379 42.7848H30.9315C30.1747 42.7848 29.5534 42.1635 29.5534 41.4067ZM26.1846 40.9473C26.1846 42.2169 26.4458 43.763 27.4096 44.4692C26.3453 46.0586 25.67 47.7995 26.5875 49.732C26.909 50.4094 27.0652 50.5392 27.4096 51.0536C26.3969 52.566 26.1846 52.7988 26.1846 54.7287C26.1846 55.6848 26.866 57.0867 27.4096 57.4849C25.9476 59.6682 25.566 61.9484 27.4096 64.0694C26.3406 65.6658 26.1846 65.8387 26.1846 67.8975C26.1846 69.0185 27.1244 70.5354 27.7553 71.0737C28.5688 71.7679 29.7742 72.3382 31.2378 72.3382H40.7316C44.9097 72.3382 46.71 68.1885 45.3819 65.391C45.0603 64.7136 44.9042 64.5837 44.5598 64.0694C46.1764 62.8848 46.1764 58.8226 44.5598 57.6381C46.3117 55.0218 46.1622 53.4466 44.5598 51.0536C45.5725 49.5413 45.7848 49.3085 45.7848 47.3786C45.7848 46.4225 45.1034 45.0206 44.5598 44.6223C45.6775 42.9531 45.7848 42.6955 45.7848 40.7942C45.7848 38.7711 43.6528 36.3535 41.191 36.3535H30.7784C28.4153 36.3535 26.1846 38.5842 26.1846 40.9473L26.1846 40.9473Z" fill="#8D99B1"/>
<path fill-rule="evenodd" clip-rule="evenodd" d="M53.9004 2.0535C53.9004 4.2346 56.7819 3.73791 58.0348 3.73791L42.7603 19.0886C42.1475 18.6661 40.1653 16.0638 39.5727 15.3093C36.8161 11.7998 36.4893 10.6982 33.8772 13.1149C33.2732 13.6738 32.8057 14.2611 32.1936 14.8001C29.9532 16.773 25.885 20.8452 24.3242 22.0903L17.4935 28.5815C15.5108 30.3273 11.0739 34.7154 9.62408 35.8716C7.42446 37.6258 8.02175 39.1814 9.46862 39.6091C10.4379 39.8956 11.0275 39.1967 11.5989 38.612L15.1143 35.3899C15.7195 34.884 16.2212 34.2687 16.8025 33.7093L18.5665 32.1045C20.539 30.13 23.5287 27.6133 25.4573 25.6734L28.8994 22.3779C29.277 22.0144 29.4514 21.9611 29.8232 21.6173L35.0278 16.7155C35.3815 16.3481 35.482 16.1222 35.9846 15.988C36.113 16.4691 36.3579 16.6118 36.6628 16.9942L40.5301 21.855C42.4924 24.2933 43.0741 23.522 45.0573 21.5388C46.7154 19.8807 59.7766 6.66216 60.4848 6.18793C60.4848 7.93862 60.1153 9.46161 61.3526 10.0745C62.6842 10.7341 63.8536 9.63045 63.8536 8.17854C63.8536 6.55033 64.132 1.97854 63.4611 1.06783C63.2012 0.714982 62.7123 0.369141 62.1692 0.369141H55.5848C54.6901 0.369141 53.9004 1.15883 53.9004 2.0535H53.9004Z" fill="#8D99B1"/>
<path fill-rule="evenodd" clip-rule="evenodd" d="M14.547 68.9701H4.90004C2.90764 68.9701 2.7987 65.7545 5.05314 65.7545H14.3939C17.0153 65.7545 16.9472 68.9701 14.547 68.9701ZM10.4126 62.3857H9.34068C4.47451 62.3857 1.19018 55.7764 5.08904 51.5496C9.01377 47.2947 16.3845 50.07 16.3845 55.9544C16.3845 59.1545 13.5914 62.3857 10.4126 62.3857L10.4126 62.3857ZM1.10676e-05 55.8013C1.10676e-05 59.8589 1.52149 60.9255 2.90938 62.9982C1.35705 63.3598 1.10676e-05 65.3649 1.10676e-05 67.4389C1.10676e-05 70.0693 2.26956 72.3389 4.90004 72.3389H14.8532C18.3951 72.3389 20.8954 68.3159 19.0949 65.0347C18.6385 64.2029 17.8276 63.2273 16.8439 62.9982C17.9143 61.3995 18.7333 60.9139 19.3903 58.3477C21.0468 51.8791 15.7105 46.1543 10.5657 46.1543C7.19691 46.1543 5.13886 46.7604 2.79286 49.1003C1.36787 50.5216 0 53.0049 0 55.8013L1.10676e-05 55.8013Z" fill="#8D99B1"/>
<path fill-rule="evenodd" clip-rule="evenodd" d="M6.58436 55.6478C6.58436 57.1745 6.98542 58.3307 8.48033 58.9581C11.1412 60.0747 13.1688 57.8982 13.1688 55.954C13.1688 54.1315 11.6696 52.7726 10.0699 52.6179C8.35009 52.4517 6.58435 53.9732 6.58435 55.6478H6.58436Z" fill="#8D99B1"/>
</svg>
