<svg width="70" height="70" viewBox="0 0 70 70" fill="none" xmlns="http://www.w3.org/2000/svg">
<path fill-rule="evenodd" clip-rule="evenodd" d="M0.000135806 33.7695V36.2305C0.000135806 42.494 2.16053 47.9081 4.69493 52.5903C4.95894 53.0781 5.2023 53.4036 5.47527 53.8607C8.82831 59.4756 14.2464 63.8396 20.0957 66.7207C23.3211 68.3095 28.9719 70 33.7697 70C40.5135 70 43.71 69.3605 49.8052 66.7582C50.7732 66.3449 51.6851 65.8194 52.5791 65.2938C54.9955 63.8734 55.5597 63.3382 57.559 61.7971L59.7804 59.7802C64.2473 55.3133 67.3238 49.7981 68.9543 43.6612C69.5628 41.3708 69.9071 38.953 70 36.5026V33.7691C69.8214 29.0026 68.7149 24.2458 66.7661 20.1868C66.1997 19.0073 65.6233 17.2264 63.9844 17.2264C62.7677 17.2264 61.6602 18.2343 61.6602 19.4139C61.6602 20.4755 64.4307 24.5363 65.2234 30.3429C65.8157 34.6816 65.7433 37.3745 64.839 41.5967C64.3707 43.7829 63.7808 45.4154 62.9894 47.2667C61.8977 49.8208 60.4491 52.1294 58.7461 54.2343C57.3845 55.9174 56.6146 56.6371 55.0651 58.073L52.9102 59.7463C50.7172 61.3977 48.1652 62.6449 45.5856 63.6325C44.5814 64.0168 43.7212 64.2368 42.6731 64.5481C38.1529 65.8904 32.0318 65.7483 27.451 64.5606C24.5344 63.8043 22.1076 62.797 19.6085 61.329C17.2807 59.9615 15.2709 58.4051 13.3643 56.4989C11.6281 54.7632 9.78058 52.3919 8.57109 50.2179C8.11085 49.3906 7.68143 48.7035 7.30376 47.7939C6.57828 46.0464 5.82633 44.347 5.3889 42.326C2.80561 30.3901 6.03194 20.5079 14.592 12.2676C14.8912 11.9795 14.9707 11.967 15.2702 11.7154C22.0774 5.99568 29.6147 3.89952 38.6881 4.65175C43.1857 5.02453 48.7562 7.25188 52.3643 9.84278C54.8049 11.5952 56.4649 10.1826 56.4649 8.33982C56.4649 6.79218 54.3836 5.74213 52.8525 4.84282C48.295 2.16555 42.0378 0 36.2306 0C28.1151 0 23.8292 1.21994 17.4097 4.6948C16.9219 4.9588 16.5964 5.20217 16.1393 5.47513C12.3746 7.72339 8.99019 11.2395 6.40445 14.7443C6.11152 15.1414 5.84507 15.5433 5.57875 15.9694C2.46759 20.9443 0 27.2536 0 33.7695H0.000135806Z" fill="#8D99B1"/>
<path fill-rule="evenodd" clip-rule="evenodd" d="M36.7775 34.7279H33.2228V22.8334C36.2637 22.8334 38.8629 22.3904 41.0558 24.5706C44.5461 28.0409 42.3295 34.7279 36.7775 34.7279ZM28.8478 20.2357V34.7279C25.8882 34.7279 22.8322 34.1141 22.8322 37.0522C22.8322 39.802 26.5604 39.2398 28.8478 39.2398V41.7007C25.8882 41.7007 22.8322 41.0869 22.8322 44.0249C22.8322 46.7606 26.6665 46.2125 28.8478 46.2125V49.7672C28.8478 50.7599 30.0518 51.6812 31.0353 51.6812C32.071 51.6812 33.2229 50.6525 33.2229 49.6304V46.2125H42.1096C46.4466 46.2125 45.3338 41.7007 43.0666 41.7007H33.2229V39.2398C35.6808 39.2398 38.1529 39.3589 40.334 38.5579C44.2081 37.1352 47.1682 33.371 47.1682 29.2593C47.1682 24.473 45.0418 21.0728 40.7425 19.1421C38.3224 18.0554 34.3187 18.3218 31.4456 18.3218C30.1666 18.3218 28.8479 19.0439 28.8479 20.2359L28.8478 20.2357Z" fill="#8D99B1"/>
<path fill-rule="evenodd" clip-rule="evenodd" d="M57.2854 13.124C57.2854 14.3798 58.4517 15.5955 59.4699 15.8729C61.1949 16.3431 63.4799 14.0594 61.3564 11.924C61.1723 11.7388 60.8571 11.3901 60.6512 11.2621C59.2456 10.3875 57.2854 11.5277 57.2854 13.124V13.124Z" fill="#8D99B1"/>
</svg>
