<svg width="66" height="73" viewBox="0 0 66 73" fill="none" xmlns="http://www.w3.org/2000/svg">
<path fill-rule="evenodd" clip-rule="evenodd" d="M41.9764 34.5284C41.9764 29.6053 42.5618 26.6007 46.2168 23.6353C46.9576 23.0343 48.1372 22.3321 49.1685 22.0919C49.1685 23.8898 48.9858 24.5259 49.7329 25.723C51.0991 27.9118 54.4227 27.8405 55.738 25.8146C56.5445 24.5725 56.3607 23.9966 56.3607 22.0919C60.4168 23.0369 63.5528 27.723 63.5528 32.7302C63.5528 35.1476 63.9304 34.8692 61.3603 35.6322C60.4558 35.9006 59.6667 36.0702 58.6961 36.2643L52.7646 36.9374C51.9977 36.9374 51.9345 36.8087 51.2665 36.7753C48.3224 36.6284 47.032 36.4017 44.1912 35.6098C43.5965 35.444 41.9764 35.1418 41.9764 34.5281V34.5284ZM51.566 23.5903V22.5414H53.9634V23.5903C53.9634 24.2584 53.3567 24.9388 52.7646 24.9388C52.1727 24.9388 51.566 24.2584 51.566 23.5903ZM44.3738 11.7532C44.3738 7.52331 47.594 3.95284 52.36 3.39533C54.38 3.15907 56.8271 4.31034 58.3988 5.51979C59.7085 6.52772 61.0057 9.14054 61.0057 11.154C61.0057 12.9432 61.0172 13.9048 60.1817 15.5743C57.1612 21.6103 48.2468 21.7152 45.171 15.1516C44.8165 14.3951 44.3737 12.7777 44.3737 11.7534L44.3738 11.7532ZM41.9764 11.6033C41.9764 13.8007 42.422 15.6407 43.3859 17.2363C44.4038 18.9214 45.1277 19.4255 46.4715 20.5935C45.3222 20.8613 43.6035 22.6273 42.76 23.4747C41.2474 24.9944 39.579 28.5626 39.579 31.3817V35.7269C39.579 36.7955 40.6551 37.0453 41.7685 37.4331C49.1356 39.9993 56.38 40.004 63.7606 37.4331C66.5264 36.4696 65.9501 36.8 65.9501 31.3817C65.9501 28.9243 64.7495 26.2596 63.7346 24.7568C62.8436 23.4377 60.4882 20.9755 59.0576 20.5933C60.4014 19.4253 61.0849 18.9883 62.1432 17.2361C63.9411 14.2599 63.9312 10.6152 62.6346 7.42674C61.1842 3.85992 57.3787 0.964844 53.5134 0.964844C50.7396 0.964844 48.6322 1.27741 46.3833 2.97476C43.7658 4.95041 41.976 8.15135 41.976 11.6032L41.9764 11.6033Z" fill="#8D99B1"/>
<path fill-rule="evenodd" clip-rule="evenodd" d="M2.41953 68.0914C2.41953 63.1206 2.64284 61.9267 5.26601 58.5014C5.98026 57.5687 8.68645 55.3167 10.1756 55.6732C12.4882 56.2269 13.7503 56.3169 16.1212 55.7055C17.3615 55.3856 18.7648 56.4168 19.6731 57.1309C23.4209 60.0767 23.9959 63.1741 23.9959 68.0914C23.9959 68.6786 22.381 69.0239 21.8034 69.1953C19.9444 69.7472 18.235 69.9994 16.2929 70.2777L13.2076 70.5007C12.4405 70.5007 12.3774 70.372 11.7095 70.3386C11.1227 70.3094 10.7128 70.3624 10.1223 70.2777C9.0403 70.1226 8.29086 70.0305 7.27608 69.8276C6.25094 69.6226 5.47241 69.4067 4.63417 69.1731C4.0395 69.0073 2.41938 68.7051 2.41938 68.0914H2.41953ZM4.81696 45.3162C4.81696 44.3246 5.25154 42.7207 5.56609 42.0197C6.89832 39.0505 9.29422 37.3688 12.8032 36.9583C14.8231 36.7219 17.2702 37.8733 18.8419 39.0828C20.1516 40.0905 21.4488 42.7035 21.4488 44.7168C21.4488 46.506 21.4604 47.4676 20.6249 49.1371C19.444 51.4967 17.3554 53.0477 14.7962 53.4974C11.8415 54.0165 9.27381 53.1423 7.25019 51.124C5.85094 49.7284 4.81696 47.354 4.81696 45.3162ZM2.41953 45.1663C2.41953 48.4754 3.65 51.4826 6.03677 53.3862C6.36 53.6439 6.61865 53.899 6.91462 54.1565C5.42306 54.5039 3.12129 57.0028 2.23918 58.3215C-0.379276 62.2354 0.0220979 64.7279 0.0220979 69.29C0.0220979 70.3586 1.09827 70.6084 2.21161 70.9962C3.24756 71.3571 4.0919 71.6154 5.17873 71.9249C11.1817 73.6345 18.3408 73.0384 24.2037 70.9962C26.9695 70.0328 26.3932 70.363 26.3932 64.9448C26.3932 61.3198 24.3949 58.1978 22.1633 55.9892C21.6537 55.4847 20.2058 54.3449 19.5009 54.1566C20.8447 52.9886 21.5281 52.5516 22.5865 50.7994C24.3844 47.8231 24.3745 44.1785 23.078 40.9899C22.348 39.1944 21.1655 37.7763 19.6731 36.6032C16.6154 34.1999 11.8714 33.8696 8.40937 35.5732C7.48736 36.027 6.02459 37.0074 5.39305 37.8011C4.63021 38.7598 3.89387 39.645 3.38039 40.8829C2.88214 42.0839 2.41953 43.5532 2.41953 45.1665V45.1663Z" fill="#8D99B1"/>
<path fill-rule="evenodd" clip-rule="evenodd" d="M38.2305 45.9153C39.9846 46.0613 42.0598 47.8837 43.0565 49.4802C44.4883 51.7737 42.941 51.3094 49.618 51.3094C51.2303 51.3094 60.8917 51.1065 61.9925 51.5212C63.0129 51.9055 63.5528 52.8149 63.5528 54.1564V67.6416C63.5528 69.4787 62.5429 70.4886 60.7058 70.4886H35.2336C33.3965 70.4886 32.3866 69.4787 32.3866 67.6416V54.1564C32.3866 52.3498 33.3451 51.3838 35.0808 51.3065C37.5483 51.1969 41.465 52.6567 38.2302 45.9153H38.2305ZM35.6834 45.3159C35.6834 47.1629 36.3812 47.4052 36.7323 48.912C34.3694 48.912 33.5419 48.7084 32.0215 49.7452C31.0262 50.424 29.9895 51.8034 29.9895 53.4071V68.3908C29.9895 69.6674 30.6414 70.7532 31.2949 71.4306C31.9056 72.0638 33.1735 72.8859 34.3347 72.8859H61.605C62.7247 72.8859 63.9767 72.0997 64.5704 71.506C65.1642 70.9122 65.9504 69.6602 65.9504 68.5405V53.2572C65.9504 51.8019 64.8172 50.2519 63.5497 49.5145C62.058 48.6467 60.284 48.9119 58.0091 48.9119C53.8636 48.9119 49.7181 48.9119 45.5727 48.9119C44.9438 47.7233 44.6717 47.3336 43.7372 46.402C42.3042 44.9735 38.6622 42.0861 36.4878 43.8725C36.1472 44.1523 35.6835 44.7629 35.6835 45.3158L35.6834 45.3159Z" fill="#8D99B1"/>
<path fill-rule="evenodd" clip-rule="evenodd" d="M4.81702 19.6945V6.20921C4.81702 4.37218 5.82693 3.36227 7.6638 3.36227H33.1361C34.9731 3.36227 35.983 4.37218 35.983 6.20921V19.6945C35.983 26.1914 25.3413 17.9357 30.1394 27.9355C28.3086 27.7832 26.2093 25.8056 25.3135 24.3707C25.0297 23.9163 24.8735 23.417 24.5634 23.0229C24.1008 22.4352 23.9157 22.525 22.952 22.5367C20.438 22.5672 7.47172 22.7417 6.37727 22.3297C5.35685 21.9454 4.81702 21.036 4.81702 19.6945ZM2.41959 5.45993V20.4436C2.41959 22.1783 3.59416 23.6039 4.72471 24.2817C6.26653 25.2062 8.03654 24.9387 10.3609 24.9387C14.5064 24.9387 18.6519 24.9387 22.7972 24.9387C23.5625 26.3849 24.4132 27.3579 25.6065 28.4225C27.9348 30.5 32.6866 31.8769 32.6866 28.0853C32.6866 27.1145 31.878 25.9704 31.6377 24.9387C33.9146 24.9387 34.9012 25.0988 36.3486 24.1056C37.2595 23.4808 38.3803 22.0206 38.3803 20.5933V5.31004C38.3803 3.33044 36.2942 0.964844 33.8852 0.964844H6.91452C4.60224 0.964844 2.41943 3.14765 2.41943 5.45993H2.41959Z" fill="#8D99B1"/>
<path fill-rule="evenodd" clip-rule="evenodd" d="M37.1818 63.2963C37.1818 64.0211 37.6556 64.4951 38.3804 64.4951H57.5595C59.1679 64.4951 59.1679 62.0977 57.5595 62.0977H38.3804C37.6556 62.0977 37.1818 62.5715 37.1818 63.2965V63.2963Z" fill="#8D99B1"/>
<path fill-rule="evenodd" clip-rule="evenodd" d="M9.61169 10.5541C9.61169 11.2789 10.0856 11.7529 10.8105 11.7529H29.9896C31.598 11.7529 31.598 9.35547 29.9896 9.35547H10.8105C10.0857 9.35547 9.61169 9.82935 9.61169 10.5543V10.5541Z" fill="#8D99B1"/>
<path fill-rule="evenodd" clip-rule="evenodd" d="M46.7711 58.5015C46.7711 59.2263 47.245 59.7002 47.9699 59.7002H57.5595C59.1679 59.7002 59.1679 57.3027 57.5595 57.3027H47.9699C47.2452 57.3027 46.7711 57.7766 46.7711 58.5015Z" fill="#8D99B1"/>
<path fill-rule="evenodd" clip-rule="evenodd" d="M19.2012 15.349C19.2012 16.0738 19.6751 16.5478 20.3998 16.5478H29.9894C31.5978 16.5478 31.5978 14.1504 29.9894 14.1504H20.3998C19.6751 14.1504 19.2012 14.6243 19.2012 15.349Z" fill="#8D99B1"/>
<path fill-rule="evenodd" clip-rule="evenodd" d="M56.3607 29.7327C56.3607 31.4105 58.601 30.9315 61.1554 30.9315C62.7638 30.9315 62.7638 28.534 61.1554 28.534C58.601 28.534 56.3607 28.0548 56.3607 29.7327Z" fill="#8D99B1"/>
</svg>
